<svg xmlns="http://www.w3.org/2000/svg" viewBox="0 0 463 153.66"><defs><style>.cls-1{fill:#757575;}.cls-2{fill:#c12428;}</style></defs><title>vday_type</title><g id="Layer_2" data-name="Layer 2"><g id="Layer_1-2" data-name="Layer 1"><path class="cls-1" d="M16.9,152a2,2,0,0,1-1.24.37c-1.28,0-1.87-.85-1.87-2.05v-.61H10v2.51H8.71v-2.51H7.18v-1.23H8.71V146.2a4.15,4.15,0,0,1,1.54-3.42l.82,1a2.8,2.8,0,0,0-1,2.4v2.24h3.76v-3.67A3.63,3.63,0,0,0,10,141.15,3.76,3.76,0,0,0,6.57,143a2.55,2.55,0,0,0-.31,1.17,2.68,2.68,0,0,0,.56,1.75l-1,.82A3.64,3.64,0,0,1,5,144.19a3.81,3.81,0,0,1,.45-1.73A5,5,0,0,1,10,139.91a4.87,4.87,0,0,1,4.71,2.82,5.06,5.06,0,0,1,.41,2v5.47a.81.81,0,0,0,.81.92,1.3,1.3,0,0,0,1-.39Z" transform="translate(-1.36 -2.72)"/><path class="cls-1" d="M29.85,147.63A2.56,2.56,0,0,1,32.23,150a2.31,2.31,0,0,1-2.43,2.29A2.4,2.4,0,0,1,27.41,151a1.7,1.7,0,0,1-1.75,1.36,1.92,1.92,0,0,1-1.28-.4v-1.26a1.42,1.42,0,0,0,1,.44.85.85,0,0,0,.8-1v-7.29h1.32v4.2c1.84,0,4.39-.33,4.39-2.71s-2.33-3.19-4.25-3.19c-2.4,0-4.44,1.27-4.44,3.84a2.68,2.68,0,0,0,.68,1.87l-1,.83a3.65,3.65,0,0,1-1-2.7c0-3.3,2.55-5.08,5.67-5.08a7.31,7.31,0,0,1,2.5.39,4.29,4.29,0,0,1,3.11,4A3.45,3.45,0,0,1,29.85,147.63Zm-1.58.47c-.25,0-.52,0-.78,0v1.7a1.12,1.12,0,0,0,.14.4,1.79,1.79,0,0,0,1.75,1A1.44,1.44,0,0,0,31,149.87C31,148.37,29.48,148.1,28.27,148.1Z" transform="translate(-1.36 -2.72)"/><path class="cls-1" d="M45.53,146.84a4.51,4.51,0,0,1-2.13-.66l.56-1.12a2.9,2.9,0,0,0,1.52.53,2.18,2.18,0,0,0,2.26-2.2c0-1.54-1.5-2.21-2.86-2.21a5,5,0,0,0-4.74,5.22c0,2.93,2.06,4.69,4.91,4.69a4.92,4.92,0,0,0,3.37-1.24v1.57a6.07,6.07,0,0,1-3.37.91c-3.6,0-6.24-2.27-6.24-6a6.17,6.17,0,0,1,6.07-6.42,4.11,4.11,0,0,1,3.83,2,3.24,3.24,0,0,1,.35,1.46A3.44,3.44,0,0,1,45.53,146.84Z" transform="translate(-1.36 -2.72)"/><path class="cls-1" d="M62.49,152.33a2.84,2.84,0,0,1-2.87-1.63,1.71,1.71,0,0,1-1.8,1.63,1.91,1.91,0,0,1-1.27-.4v-1.26a1.37,1.37,0,0,0,1,.44.85.85,0,0,0,.8-1v-7.29h1.33v6.27a2.35,2.35,0,0,0,.17.51,2.69,2.69,0,0,0,2.66,1.53c2.55,0,3.52-2.33,3.52-4.56a5.44,5.44,0,0,0-5.56-5.45c-2.68,0-5.09,1.32-5.09,4.26a3.14,3.14,0,0,0,.64,1.89l-1,.8a4.33,4.33,0,0,1-.93-2.69c0-3.63,3-5.5,6.34-5.5a6.72,6.72,0,0,1,6.92,6.69C67.34,149.63,65.78,152.33,62.49,152.33Z" transform="translate(-1.36 -2.72)"/><path class="cls-1" d="M79.65,146l-.38-1.2a2,2,0,0,0,1.94-1.79c0-1.48-1.75-1.88-2.92-1.88-1.72,0-3.66.93-3.66,2.89,0,2.21,2.18,3.23,4.13,3.18v1.18c-1,0-2.8.09-2.8,1.43,0,1,1.39,1.31,2.19,1.31a4.09,4.09,0,0,0,2.47-.71v1.32a5.53,5.53,0,0,1-2.64.56c-1.49,0-3.35-.64-3.35-2.41a2.18,2.18,0,0,1,2-2.11,3.77,3.77,0,0,1-3.33-3.75c0-2.76,2.57-4.13,5-4.13a4.24,4.24,0,0,1,3.74,1.68,2.7,2.7,0,0,1,.43,1.44A3,3,0,0,1,79.65,146Z" transform="translate(-1.36 -2.72)"/><path class="cls-1" d="M99.55,141.34a3.6,3.6,0,0,0-3.45,3.84v1.92h2.43v1.22H96.1v1.35a2.48,2.48,0,0,1-2.44,2.66,3.36,3.36,0,0,1-1.93-.49V150.5a2.54,2.54,0,0,0,1.74.63,1.35,1.35,0,0,0,1.31-1.46v-1.35H92.33V147.1h2.45v-1.92a3.87,3.87,0,0,1,2.38-3.83H91.28c-1.23,0-2.3.51-2.3,1.89A1.93,1.93,0,0,0,91.14,145l-.34,1.22a3,3,0,0,1-3.13-3c0-2.1,1.77-3.11,3.67-3.11h8.21Z" transform="translate(-1.36 -2.72)"/><path class="cls-1" d="M112.35,146.23a3.64,3.64,0,0,1-1.68-.46l.5-1.12a2.07,2.07,0,0,0,1.18.31,1.76,1.76,0,0,0,1.79-1.69c0-1.47-1.73-2.09-3-2.09a4.74,4.74,0,0,0-2.09.51,5.15,5.15,0,0,0-2.77,4.71c0,2.6,1.36,4.69,4.13,4.69a3.7,3.7,0,0,0,2.65-1V148h1.33v5.49a3.17,3.17,0,0,1-1.74,2.92l-.69-1.09a1.82,1.82,0,0,0,1.1-1.83v-2a4.2,4.2,0,0,1-2.68.86c-3.45,0-5.43-2.63-5.43-5.93a6.3,6.3,0,0,1,6.19-6.47,4.16,4.16,0,0,1,3.84,1.93,3.14,3.14,0,0,1,.36,1.41A3,3,0,0,1,112.35,146.23Z" transform="translate(-1.36 -2.72)"/><path class="cls-1" d="M136.09,151.82a2.2,2.2,0,0,1-1.47.51c-1.39,0-1.93-.88-1.93-2.19V148h-3.15a5.43,5.43,0,0,1-5.54,4.35v-1.22a4.18,4.18,0,0,0,4.17-3.13h-1.79v-1.22h2a9.22,9.22,0,0,0,.09-1.17c0-2.26-.94-4.42-3.51-4.42a2.63,2.63,0,0,0-2.78,2.48,2.38,2.38,0,0,0,.91,1.8l-.85,1a3.6,3.6,0,0,1-1.37-2.77,4,4,0,0,1,4.09-3.72c3.3,0,4.83,2.63,4.83,5.66a9.18,9.18,0,0,1-.07,1.17h2.93v-6.65H134v9.95c0,.63.22,1.05.9,1.05a1.62,1.62,0,0,0,1.19-.56Z" transform="translate(-1.36 -2.72)"/><path class="cls-1" d="M148.36,149.51a2.64,2.64,0,0,1-2.65,2.82,2.74,2.74,0,0,1-1.7-.52v-1.4a2.18,2.18,0,0,0,1.6.72,1.48,1.48,0,0,0,1.42-1.62v-6a2.33,2.33,0,0,0-2.27-2.38,2.26,2.26,0,0,0-2.33,2.26,2.12,2.12,0,0,0,1.12,1.83l-.92.92a3.35,3.35,0,0,1-1.53-2.75,3.63,3.63,0,0,1,7.26.12Z" transform="translate(-1.36 -2.72)"/><path class="cls-1" d="M162.16,153.3a2.64,2.64,0,0,1-2.65,2.83,2.82,2.82,0,0,1-1.71-.53v-1.4a2.16,2.16,0,0,0,1.61.7,1.47,1.47,0,0,0,1.43-1.6v-9.75a2.33,2.33,0,0,0-2.28-2.38,2.26,2.26,0,0,0-2.33,2.26,2.12,2.12,0,0,0,1.12,1.83l-.91.92a3.32,3.32,0,0,1-1.53-2.75,3.63,3.63,0,0,1,7.25.12Z" transform="translate(-1.36 -2.72)"/><path class="cls-1" d="M184.4,152a2.2,2.2,0,0,1-1.26.3c-1.56,0-2.17-1.25-2.72-2.49-.41-.92-1-1.94-2.19-1.94h-.87a5.46,5.46,0,0,1-5.56,4.43v-1.22c3.22,0,4.51-2.63,4.51-5.52,0-2.26-.94-4.42-3.5-4.42a2.63,2.63,0,0,0-2.79,2.48,2.35,2.35,0,0,0,.92,1.8l-.85,1a3.58,3.58,0,0,1-1.38-2.77,4,4,0,0,1,4.1-3.72c3.29,0,4.82,2.63,4.82,5.66a8,8,0,0,1-.06,1.08h1a2.61,2.61,0,0,0,2.53-2.9v-3.66h1.31v3.66a3.3,3.3,0,0,1-2.92,3.57c1.25.18,1.73,1.15,2.15,2.07s.8,1.72,1.86,1.72a1.55,1.55,0,0,0,.9-.31Z" transform="translate(-1.36 -2.72)"/><path class="cls-1" d="M199.92,150.58a3.91,3.91,0,0,1-3.62,1.6h-7.05V151a2.17,2.17,0,0,0,2.34-2.17v-5.27a3.51,3.51,0,0,1,3.71-3.6,3.39,3.39,0,0,1,3.65,3.5,3.65,3.65,0,0,1-1.51,2.82l-.9-.87a2.34,2.34,0,0,0,1.09-1.95,2.21,2.21,0,0,0-2.33-2.25,2.31,2.31,0,0,0-2.38,2.35v5.32a2.33,2.33,0,0,1-1.28,2.14h4.59a3.32,3.32,0,0,0,2.91-1.24Z" transform="translate(-1.36 -2.72)"/><path class="cls-1" d="M223.8,151.88a1.91,1.91,0,0,1-1.37.45,1.86,1.86,0,0,1-1.92-2.05V142.8a1.52,1.52,0,0,0-1.57-1.63,2.44,2.44,0,0,0-2.29,2.72v8.29h-1.33V142.8a1.51,1.51,0,0,0-1.56-1.63,2.45,2.45,0,0,0-2.31,2.72v8.29h-1.33v-8.74a2,2,0,0,0-2-2.26,1.86,1.86,0,0,0-1.9,1.91,2.17,2.17,0,0,0,1,1.71l-.87.82a3,3,0,0,1-1.42-2.53,3,3,0,0,1,3.17-3.16,3.07,3.07,0,0,1,3.06,2,2.86,2.86,0,0,1,2.84-2,2.53,2.53,0,0,1,2.47,1.75,2.81,2.81,0,0,1,2.72-1.75,2.63,2.63,0,0,1,2.63,2.83v7.43a.87.87,0,0,0,.85.92,1.34,1.34,0,0,0,1.12-.51Z" transform="translate(-1.36 -2.72)"/><path class="cls-1" d="M243.64,151.88a1.91,1.91,0,0,1-1.37.45,1.86,1.86,0,0,1-1.92-2.05v-6.9a2.07,2.07,0,0,0-2.16-2.21,2.86,2.86,0,0,0-2.86,2.78v8.23H234v-8.74a2,2,0,0,0-2-2.26,1.86,1.86,0,0,0-1.9,1.91,2.14,2.14,0,0,0,1,1.71l-.87.82a3.05,3.05,0,0,1-1.43-2.53,3,3,0,0,1,3.18-3.16,3.08,3.08,0,0,1,3,2,3.63,3.63,0,0,1,3.39-2,3.24,3.24,0,0,1,3.24,3.45v6.81a.87.87,0,0,0,.85.92,1.34,1.34,0,0,0,1.12-.51Z" transform="translate(-1.36 -2.72)"/><path class="cls-1" d="M261.49,148.48a6.39,6.39,0,0,1-5.83,3.85,6.58,6.58,0,0,1-4.32-11.55,4.13,4.13,0,0,1,1.62-.9v1.34a5.1,5.1,0,0,0-2.55,4.5,5.28,5.28,0,0,0,5.27,5.36,5.37,5.37,0,0,0,5.12-5.34c0-2.09-1.23-4.66-3.61-4.66a1.91,1.91,0,0,0-2,1.79,1.66,1.66,0,0,0,1.65,1.8,2.49,2.49,0,0,0,1.39-.36l.49,1a3.35,3.35,0,0,1-2,.53,2.85,2.85,0,0,1-2.8-3.06,3.09,3.09,0,0,1,3.21-2.93c3.14,0,5,3,5,5.85A6.69,6.69,0,0,1,261.49,148.48Z" transform="translate(-1.36 -2.72)"/><path class="cls-1" d="M277.35,148.46a3.62,3.62,0,0,1-1.58.39,5.29,5.29,0,0,1-2.12-.36v1.75c0,1.18-.58,2.09-1.84,2.09a1.91,1.91,0,0,1-1.27-.4v-1.26a1.39,1.39,0,0,0,1,.44.85.85,0,0,0,.8-1v-7.29h1.33v4.52a4.79,4.79,0,0,0,1.83.34,2.9,2.9,0,0,0,2.93-2.94c0-2.6-2.24-3.62-4.56-3.62s-4.5,1.34-4.5,3.82a2.6,2.6,0,0,0,.68,1.84l-.95.83a3.65,3.65,0,0,1-1-2.67c0-3.23,2.74-5.06,5.77-5.06s5.89,1.49,5.89,4.82A4.12,4.12,0,0,1,277.35,148.46Z" transform="translate(-1.36 -2.72)"/><path class="cls-1" d="M289.58,151.43a9.55,9.55,0,0,1,1.43.34,7,7,0,0,0,2.19.4,7.14,7.14,0,0,0,2.19-.46v1.34a7.14,7.14,0,0,1-2.24.36,8.43,8.43,0,0,1-2.86-.62,8.79,8.79,0,0,0-2.89-.61v-1.26c3.27-.08,7.4-2.33,7.4-6a3.55,3.55,0,0,0-3.59-3.74c-2,0-4,1.18-4,3.35a2.77,2.77,0,0,0,2.77,2.94l-.43,1.23a4.06,4.06,0,0,1-3.65-4.17c0-2.9,2.55-4.6,5.27-4.6a4.79,4.79,0,0,1,4.93,5C296.14,148.46,292.84,151,289.58,151.43Z" transform="translate(-1.36 -2.72)"/><path class="cls-1" d="M314.46,152.06a2.32,2.32,0,0,1-1.32.27c-1.38,0-2-1.08-2.5-2.2s-.94-1.74-2.09-1.74h-.85v1.85c0,1.18-.58,2.09-1.85,2.09a2,2,0,0,1-1.26-.4v-1.18a1.33,1.33,0,0,0,1,.45c.55,0,.8-.46.8-1v-7.37h1.33v4.38h.73c1.7,0,3.7-.83,3.7-2.82,0-2.35-2.22-3.26-4.24-3.26-2.3,0-4.53,1.39-4.53,3.87a2.71,2.71,0,0,0,.68,1.82l-1,.85a3.68,3.68,0,0,1-1-2.67c0-3.23,2.74-5.11,5.76-5.11,2.76,0,5.58,1.34,5.58,4.45a3.73,3.73,0,0,1-3.56,3.47c1.13.2,1.6,1.08,2,1.88s.74,1.41,1.54,1.41a1.64,1.64,0,0,0,1-.28Z" transform="translate(-1.36 -2.72)"/><path class="cls-1" d="M325.34,145.21l-.83-.85a1.54,1.54,0,0,0,1-1.37,2,2,0,0,0-2.16-1.86,2.21,2.21,0,0,0-2.45,2.09c0,1.16,1,1.87,2,2.62,1.28.92,2.71,1.91,2.71,3.76a2.69,2.69,0,0,1-2.89,2.73,2.81,2.81,0,0,1-1.55-.4v-1.48a2.21,2.21,0,0,0,1.55.64,1.5,1.5,0,0,0,1.59-1.49c0-1.31-1.08-2-2.21-2.82s-2.5-1.79-2.5-3.56c0-2.14,1.77-3.29,3.76-3.29a3.22,3.22,0,0,1,3.49,3.06A2.5,2.5,0,0,1,325.34,145.21Z" transform="translate(-1.36 -2.72)"/><path class="cls-1" d="M344,141.34a3.6,3.6,0,0,0-3.45,3.84v4.33a2.65,2.65,0,0,1-2.56,2.82,3.41,3.41,0,0,1-1.93-.51V150.5a2.38,2.38,0,0,0,1.64.56,1.48,1.48,0,0,0,1.53-1.55v-4.33a3.8,3.8,0,0,1,2.39-3.83h-5.9c-1.22,0-2.29.51-2.29,1.89a1.93,1.93,0,0,0,2.16,1.79l-.34,1.22a3,3,0,0,1-3.13-3c0-2.1,1.77-3.11,3.69-3.11H344Z" transform="translate(-1.36 -2.72)"/><path class="cls-1" d="M364,151.89a2.13,2.13,0,0,1-1.4.44,1.86,1.86,0,0,1-1.95-1.71,3.22,3.22,0,0,1-3.06,1.71,3.33,3.33,0,0,1-3.32-3.6v-5.27a2.11,2.11,0,0,0-2-2.28,1.77,1.77,0,0,0-1.84,1.75,2.22,2.22,0,0,0,.92,1.74l-.92.85a3.19,3.19,0,0,1-1.32-2.59,2.92,2.92,0,0,1,3.16-3,3.27,3.27,0,0,1,3.35,3.53v5.27a2.17,2.17,0,0,0,2.21,2.41,2.87,2.87,0,0,0,2.79-3v-8h1.32V150a1,1,0,0,0,.95,1.07,1.34,1.34,0,0,0,1.13-.51Z" transform="translate(-1.36 -2.72)"/><path class="cls-1" d="M383.87,141.64a1.3,1.3,0,0,0-1.08-.49.84.84,0,0,0-.92.93v6.36a3.78,3.78,0,0,1-3.93,3.91,3.7,3.7,0,0,1-3.76-3.94V143.6a2.18,2.18,0,0,0-2-2.42,1.8,1.8,0,0,0-1.83,1.86,2.07,2.07,0,0,0,.95,1.65l-.9.88A3.1,3.1,0,0,1,369,143a3,3,0,0,1,3.16-3.11,3.36,3.36,0,0,1,3.37,3.67v4.81a2.53,2.53,0,1,0,5.05,0V142a1.82,1.82,0,0,1,1.95-2.07,1.94,1.94,0,0,1,1.36.44Z" transform="translate(-1.36 -2.72)"/><path class="cls-1" d="M407.84,141.66a1.33,1.33,0,0,0-1.12-.51.86.86,0,0,0-.9.95v7a3.07,3.07,0,0,1-3.23,3.26,2.57,2.57,0,0,1-2.6-1.8,2.8,2.8,0,0,1-2.72,1.8,3.1,3.1,0,0,1-3.15-3.28V143.6c0-1.29-.66-2.43-2.05-2.43A1.76,1.76,0,0,0,390.2,143a2.07,2.07,0,0,0,1,1.72l-.88.88a3,3,0,0,1,1.75-5.62c2.17,0,3.38,1.58,3.38,3.67v5.45a1.87,1.87,0,0,0,1.82,2,2,2,0,0,0,2-2.06v-8.91h1.32V149a1.92,1.92,0,0,0,2,2.08,1.88,1.88,0,0,0,1.9-2v-7a1.85,1.85,0,0,1,2-2.09,2,2,0,0,1,1.39.45Z" transform="translate(-1.36 -2.72)"/><path class="cls-1" d="M427.58,152.33c-3.09,0-4.66-2-5.81-4.57-1.09,2.6-2.52,4.57-5.61,4.57v-1.22c3,0,4-2.62,4.94-5-1-2.63-1.93-5-4.25-5a2.4,2.4,0,0,0-2.67,2.36,2.76,2.76,0,0,0,.91,1.94l-.89.95a3.7,3.7,0,0,1-1.34-2.86c0-2.27,1.9-3.63,4-3.63,2.78,0,4,2.27,4.88,4.52,1.09-2.57,2.5-4.52,5.54-4.52v1.22c-2.94,0-4,2.62-4.87,4.95.95,2.41,2.12,5,5.13,5Z" transform="translate(-1.36 -2.72)"/><path class="cls-1" d="M445.38,153.73a2.78,2.78,0,0,1-1.74,2.65l-.69-1.1a1.53,1.53,0,0,0,1.1-1.55V150.6a3.17,3.17,0,0,1-2.79,1.73,3.5,3.5,0,0,1-3.53-3.79v-5a2.09,2.09,0,0,0-1.92-2.32,1.78,1.78,0,0,0-1.89,1.81,2.37,2.37,0,0,0,1,1.78l-.9.87A3.3,3.3,0,0,1,432.6,143a3,3,0,0,1,3.21-3.06,3.27,3.27,0,0,1,3.25,3.57v5a2.25,2.25,0,0,0,2.39,2.55,2.72,2.72,0,0,0,2.6-2.82v-8.16h1.33Z" transform="translate(-1.36 -2.72)"/><path class="cls-1" d="M464.35,151.13a4.66,4.66,0,0,1-3.36,1.22,8.6,8.6,0,0,1-2.25-.42,7.92,7.92,0,0,0-2.19-.41,2.82,2.82,0,0,0-2,.85l-.88-.82,8.56-10.2h-6.58c-1.19,0-2.36.57-2.36,1.91s1.12,1.78,2.3,1.78l-.33,1.23c-1.9-.07-3.29-1-3.29-3s1.87-3.13,3.75-3.13h7.86l.4,1c-2.61,3.16-5.23,6.34-7.87,9.47a4,4,0,0,1,1.09-.16,6.89,6.89,0,0,1,1.85.33,8.14,8.14,0,0,0,2,.34,3.71,3.71,0,0,0,2.63-.92Z" transform="translate(-1.36 -2.72)"/><path class="cls-2" d="M15.53,105.68a7.73,7.73,0,0,1-3.63-1.13l1-1.92a4.9,4.9,0,0,0,2.58.9,3.72,3.72,0,0,0,3.86-3.74c0-2.64-2.55-3.77-4.87-3.77-4.88,0-8.1,4.26-8.1,8.9,0,5,3.51,8,8.39,8a8.39,8.39,0,0,0,5.74-2.12v2.67a10.27,10.27,0,0,1-5.74,1.57c-6.15,0-10.65-3.89-10.65-10.21,0-5.89,4.26-11,10.36-11,2.64,0,5.25,1,6.52,3.43a5.3,5.3,0,0,1,.61,2.49A5.88,5.88,0,0,1,15.53,105.68Z" transform="translate(-1.36 -2.72)"/><path class="cls-2" d="M28.81,115.05a5.38,5.38,0,1,1,5.34-5.37A5.38,5.38,0,0,1,28.81,115.05Zm3.36-6.41a1.58,1.58,0,0,1-1.07.4,1.7,1.7,0,0,1-1.71-1.68,1.65,1.65,0,0,1,.41-1.07,3.49,3.49,0,0,0-4.5,3.42,3.53,3.53,0,0,0,7.05,0A3.21,3.21,0,0,0,32.17,108.64Z" transform="translate(-1.36 -2.72)"/><path class="cls-2" d="M51.23,120.94a3.65,3.65,0,0,1-2.15.61,2.94,2.94,0,0,1-2.84-3.17v-5.3a4.44,4.44,0,0,1-3.77,2,5.39,5.39,0,0,1,0-10.76,4.42,4.42,0,0,1,3.77,2v-1.71h2.09v13.63a1.35,1.35,0,0,0,1.39,1.45,2.1,2.1,0,0,0,1.51-.58Zm-5-12.07c0-.09-.18-.55-.2-.64a3.48,3.48,0,1,0-3.17,5A3.49,3.49,0,0,0,46,111.1a4.83,4.83,0,0,0,.2-.64Z" transform="translate(-1.36 -2.72)"/><path class="cls-2" d="M65.26,114.47a3.84,3.84,0,0,1-2.14.58,2.82,2.82,0,0,1-2.7-2.09,3.4,3.4,0,0,1-3.13,2.12A3.83,3.83,0,0,1,53.4,111v-6.44h2.09v6.26a2.15,2.15,0,0,0,2.23,2.41,2.84,2.84,0,0,0,2.55-3.1v-5.57h2.09v7.13a1.34,1.34,0,0,0,1.39,1.45,2.08,2.08,0,0,0,1.51-.58Z" transform="translate(-1.36 -2.72)"/><path class="cls-2" d="M70.48,112.61a3.61,3.61,0,0,0,2,.61,5.1,5.1,0,0,0,3.16-.93v2.09a7.08,7.08,0,0,1-3.16.67,5.44,5.44,0,0,1-5.66-5.43,5.36,5.36,0,0,1,5.25-5.33,5.48,5.48,0,0,1,4.47,2.29Zm3.45-5.8a3,3,0,0,0-1.88-.67,3.32,3.32,0,0,0-3.28,3.48,3.22,3.22,0,0,0,.55,1.86Z" transform="translate(-1.36 -2.72)"/><path class="cls-2" d="M86.52,106.55H83.36v4.84c0,1,.43,1.77,1.48,1.77a2.54,2.54,0,0,0,1.62-.61v1.92a3.37,3.37,0,0,1-2,.58c-2.06,0-3.16-1.45-3.16-3.45v-5H78.16v-2h3.11V98.78h2.09v5.77h3.16Z" transform="translate(-1.36 -2.72)"/><path class="cls-2" d="M94.87,106.55H91.71v4.84c0,1,.43,1.77,1.48,1.77a2.52,2.52,0,0,0,1.62-.61v1.92a3.35,3.35,0,0,1-2,.58c-2.06,0-3.16-1.45-3.16-3.45v-5h-3.1v-2h3.1V98.78h2.09v5.77h3.16Z" transform="translate(-1.36 -2.72)"/><path class="cls-2" d="M100.81,112.61a3.61,3.61,0,0,0,2,.61,5.11,5.11,0,0,0,3.17-.93v2.09a7.12,7.12,0,0,1-3.17.67,5.44,5.44,0,0,1-5.65-5.43,5.36,5.36,0,0,1,5.25-5.33,5.5,5.5,0,0,1,4.47,2.29Zm3.46-5.8a3,3,0,0,0-1.89-.67,3.47,3.47,0,0,0-2.73,5.34Z" transform="translate(-1.36 -2.72)"/><path class="cls-1" d="M9.24,49.33,15.6,63H14.13L12,58.48H6.1L4,63H2.46L8.9,49.33Zm-.18,2.9L6.73,57.17h4.66Z" transform="translate(-1.36 -2.72)"/><path class="cls-1" d="M23,49.33H25.7a6.52,6.52,0,0,1,2.5.38,3.11,3.11,0,0,1,1.38,1.18,3.34,3.34,0,0,1,.5,1.78,3.21,3.21,0,0,1-.44,1.65,3.31,3.31,0,0,1-1.3,1.21,5,5,0,0,1,1.63.85,3.47,3.47,0,0,1,.9,1.18,3.57,3.57,0,0,1,.32,1.5A3.69,3.69,0,0,1,30,61.84,4.56,4.56,0,0,1,26.76,63H23Zm1.34,1.33V55h.78a6.24,6.24,0,0,0,2.09-.26,2.27,2.27,0,0,0,1.06-.84,2.18,2.18,0,0,0,.39-1.26A1.79,1.79,0,0,0,28,51.2a3.29,3.29,0,0,0-2.09-.54Zm0,5.75v5.23H26a6.14,6.14,0,0,0,2.19-.29,2.46,2.46,0,0,0,1.12-.92,2.27,2.27,0,0,0,.43-1.34,2.32,2.32,0,0,0-.6-1.59,3.06,3.06,0,0,0-1.63-.93,12.28,12.28,0,0,0-2.43-.16Z" transform="translate(-1.36 -2.72)"/><path class="cls-1" d="M51.86,51.86l-1.08.82a5.89,5.89,0,0,0-2.14-1.75,6.22,6.22,0,0,0-2.74-.6,6,6,0,0,0-3,.78,5.69,5.69,0,0,0-2.16,2.11,5.82,5.82,0,0,0-.77,3,5.57,5.57,0,0,0,1.72,4.17A5.94,5.94,0,0,0,46,62a6.08,6.08,0,0,0,4.8-2.25l1.08.82a7,7,0,0,1-2.55,2,8,8,0,0,1-3.41.71,7.09,7.09,0,0,1-5.65-2.39,7.17,7.17,0,0,1-1.74-4.86,6.76,6.76,0,0,1,2.11-5A7.25,7.25,0,0,1,45.88,49a7.74,7.74,0,0,1,3.45.76A6.68,6.68,0,0,1,51.86,51.86Z" transform="translate(-1.36 -2.72)"/><path class="cls-1" d="M59.85,63V49.33h2.83a14.43,14.43,0,0,1,4.45.49,6,6,0,0,1,3.1,2.41,7.39,7.39,0,0,1,1.12,4.09,7.18,7.18,0,0,1-.89,3.61,5.66,5.66,0,0,1-2.3,2.3,8.58,8.58,0,0,1-4,.74Zm1.31-1.29h1.58a14.45,14.45,0,0,0,3.92-.35,4.45,4.45,0,0,0,2.42-1.8A5.55,5.55,0,0,0,70,56.34,5.81,5.81,0,0,0,69,53a4.84,4.84,0,0,0-2.66-1.92,16.1,16.1,0,0,0-4.22-.39h-1Z" transform="translate(-1.36 -2.72)"/><path class="cls-1" d="M79.26,49.33h7.82v1.33H80.62v4.28H87v1.34H80.62v5.36H87V63H79.26Z" transform="translate(-1.36 -2.72)"/><path class="cls-1" d="M94.7,49.33h6.84v1.33H96.06v4.28h5.48v1.34H96.06V63H94.7Z" transform="translate(-1.36 -2.72)"/><path class="cls-1" d="M122.34,51.62l-1.06,1a8,8,0,0,0-2.5-1.7,6.69,6.69,0,0,0-2.65-.58,6.29,6.29,0,0,0-3.06.79,5.71,5.71,0,0,0-2.25,2.13,5.53,5.53,0,0,0,0,5.78,5.76,5.76,0,0,0,2.28,2.18,6.57,6.57,0,0,0,3.19.8,5.47,5.47,0,0,0,3.57-1.19,4.69,4.69,0,0,0,1.72-3.08h-4.35V56.43h5.88a6.85,6.85,0,0,1-1.88,5,6.71,6.71,0,0,1-5,1.86,7.49,7.49,0,0,1-6-2.58,6.88,6.88,0,0,1-1.69-4.59,7,7,0,0,1,1-3.61,6.93,6.93,0,0,1,2.67-2.62,7.86,7.86,0,0,1,3.84-.94,8.5,8.5,0,0,1,3.27.63A9.83,9.83,0,0,1,122.34,51.62Z" transform="translate(-1.36 -2.72)"/><path class="cls-1" d="M131,49.33h1.37v5.72h7V49.33h1.36V63H139.3V56.39h-7V63H131Z" transform="translate(-1.36 -2.72)"/><path class="cls-1" d="M149.05,49.33h1.36V63h-1.36Z" transform="translate(-1.36 -2.72)"/><path class="cls-1" d="M163.27,49.33h1.36v9.21a9,9,0,0,1-.33,3,2.7,2.7,0,0,1-1.1,1.33,3.35,3.35,0,0,1-1.86.5,4.42,4.42,0,0,1-1.63-.32,7,7,0,0,1-1.78-1.13l.73-1.09a9.8,9.8,0,0,0,1.77,1.06,2.19,2.19,0,0,0,.91.21,1.75,1.75,0,0,0,1.07-.36,1.81,1.81,0,0,0,.67-.93,9.09,9.09,0,0,0,.19-2.27Z" transform="translate(-1.36 -2.72)"/><path class="cls-1" d="M173.21,49.33h1.39v5.12l5.46-5.12h1.83l-6.55,6.12L182.4,63h-1.82l-6-6.35V63h-1.39Z" transform="translate(-1.36 -2.72)"/><path class="cls-1" d="M189.7,49.33h1.36V61.66h5.25V63H189.7Z" transform="translate(-1.36 -2.72)"/><path class="cls-1" d="M203.11,63l2-13.64h.22l5.55,11.19,5.49-11.19h.22l2,13.64h-1.33l-1.35-9.76L211,63h-.35l-4.88-9.83L204.43,63Z" transform="translate(-1.36 -2.72)"/><path class="cls-1" d="M226.46,63V49.33h.3l9.08,10.46V49.33h1.35V63h-.31l-9-10.33V63Z" transform="translate(-1.36 -2.72)"/><path class="cls-1" d="M252.27,49a7.09,7.09,0,0,1,5.19,2.07,7.18,7.18,0,0,1-5.08,12.27,7,7,0,0,1-5.12-2.08,6.81,6.81,0,0,1-2.09-5,7.23,7.23,0,0,1,1-3.65A7,7,0,0,1,252.27,49Zm.06,1.33a5.57,5.57,0,0,0-2.87.79,5.63,5.63,0,0,0-2.12,2.13,5.87,5.87,0,0,0-.76,3A5.74,5.74,0,0,0,252.33,62a5.87,5.87,0,0,0,2.94-.77,5.55,5.55,0,0,0,2.11-2.11,6,6,0,0,0,.76-3,5.65,5.65,0,0,0-2.89-5A5.75,5.75,0,0,0,252.33,50.31Z" transform="translate(-1.36 -2.72)"/><path class="cls-1" d="M267.53,49.33h2.72a15.54,15.54,0,0,1,3.16.2,3.57,3.57,0,0,1,1.91,1.18,3.83,3.83,0,0,1,0,4.5,3.64,3.64,0,0,1-2,1.2,18.38,18.38,0,0,1-3.47.22h-1V63h-1.37Zm1.37,1.33v4.63l2.31,0a6.1,6.1,0,0,0,2.05-.25,2.14,2.14,0,0,0,1-.83,2.35,2.35,0,0,0,0-2.53,2.08,2.08,0,0,0-1-.81,5.93,5.93,0,0,0-2-.24Z" transform="translate(-1.36 -2.72)"/><path class="cls-1" d="M295.48,61.49l2,2.56h-1.68l-1.39-1.76a7.11,7.11,0,0,1-3.77,1,7,7,0,0,1-5.11-2.08,6.85,6.85,0,0,1-2.09-5,7.24,7.24,0,0,1,1-3.65,6.84,6.84,0,0,1,2.6-2.63,7.11,7.11,0,0,1,3.61-1,7.1,7.1,0,0,1,7.19,7.18,7.12,7.12,0,0,1-.57,2.88A7.48,7.48,0,0,1,295.48,61.49Zm-.84-1.07a5.71,5.71,0,0,0,1.78-4.28,5.62,5.62,0,0,0-2.88-5,5.76,5.76,0,0,0-7.9,2.12,5.94,5.94,0,0,0-.76,3A5.74,5.74,0,0,0,290.61,62a5.75,5.75,0,0,0,3-.79l-3-3.86h1.65Z" transform="translate(-1.36 -2.72)"/><path class="cls-1" d="M305.93,49.33h2.72a17,17,0,0,1,3.08.18,3.57,3.57,0,0,1,2,1.2,3.44,3.44,0,0,1,.76,2.25,3.64,3.64,0,0,1-.53,2,3.31,3.31,0,0,1-1.5,1.28,7.09,7.09,0,0,1-2.69.44L314.66,63H313l-4.9-6.33h-.77V63h-1.37Zm1.37,1.33V55.3l2.35,0a5.93,5.93,0,0,0,2-.26,2.14,2.14,0,0,0,1-.83,2.36,2.36,0,0,0,.37-1.28,2.19,2.19,0,0,0-.38-1.24,2,2,0,0,0-1-.81,6,6,0,0,0-2-.24Z" transform="translate(-1.36 -2.72)"/><path class="cls-1" d="M321.24,60.43l1.16-.69c.81,1.5,1.76,2.25,2.83,2.25a2.8,2.8,0,0,0,1.29-.32,2.23,2.23,0,0,0,.91-.86,2.14,2.14,0,0,0,.32-1.14,2.26,2.26,0,0,0-.46-1.34A11.07,11.07,0,0,0,325,56.14a11.75,11.75,0,0,1-2.13-1.87,3.42,3.42,0,0,1-.72-2.09,3.12,3.12,0,0,1,.43-1.62,3,3,0,0,1,1.2-1.15,3.39,3.39,0,0,1,1.68-.43,3.58,3.58,0,0,1,1.81.48A6.19,6.19,0,0,1,329,51.22l-1.11.84a5.17,5.17,0,0,0-1.31-1.34,2.25,2.25,0,0,0-1.19-.33,1.85,1.85,0,0,0-1.34.5,1.66,1.66,0,0,0-.53,1.24,2,2,0,0,0,.19.86,3.23,3.23,0,0,0,.67.91c.18.17.77.63,1.77,1.36a10.11,10.11,0,0,1,2.43,2.33,3.76,3.76,0,0,1,.66,2,3.49,3.49,0,0,1-1.13,2.58,3.8,3.8,0,0,1-2.74,1.1,4,4,0,0,1-2.26-.67A6.08,6.08,0,0,1,321.24,60.43Z" transform="translate(-1.36 -2.72)"/><path class="cls-1" d="M336,50.66V49.33h7.47v1.33h-3V63h-1.39V50.66Z" transform="translate(-1.36 -2.72)"/><path class="cls-1" d="M350.77,49.33h1.36v8.24a15.72,15.72,0,0,0,.06,1.82,2.89,2.89,0,0,0,.47,1.35,2.81,2.81,0,0,0,1.14.91,3.49,3.49,0,0,0,1.55.37,3.12,3.12,0,0,0,1.3-.29,2.93,2.93,0,0,0,1-.8,3.23,3.23,0,0,0,.61-1.23,10.42,10.42,0,0,0,.14-2.13V49.33h1.36v8.24a10.34,10.34,0,0,1-.35,3,4.18,4.18,0,0,1-4,2.8,5,5,0,0,1-2.83-.79A3.79,3.79,0,0,1,351,60.44a10.9,10.9,0,0,1-.25-2.87Z" transform="translate(-1.36 -2.72)"/><path class="cls-1" d="M367.38,49.33h1.49l4.52,10.54L378,49.33h1.48L373.53,63h-.29Z" transform="translate(-1.36 -2.72)"/><path class="cls-1" d="M386.25,49.33h1.4l2.79,9.83,3.91-9.83h.29l3.86,9.83,2.84-9.83h1.39L398.81,63h-.26l-4-10.32L390.38,63h-.26Z" transform="translate(-1.36 -2.72)"/><path class="cls-1" d="M409.8,49.33h1.6l3.27,5.31L418,49.33h1.58l-4.07,6.59,4.34,7h-1.6l-3.54-5.76L411.1,63h-1.59l4.36-7Z" transform="translate(-1.36 -2.72)"/><path class="cls-1" d="M426.27,49.33h1.57l3.5,5.63,3.43-5.63h1.58L432,56.45V63h-1.35V56.45Z" transform="translate(-1.36 -2.72)"/><path class="cls-1" d="M443.33,50.64V49.33h7.2l-5.71,12.31h5.42V63h-7.53l5.76-12.33Z" transform="translate(-1.36 -2.72)"/><path class="cls-2" d="M18.91,6.85,17.49,7.94a7.8,7.8,0,0,0-2.81-2.32,8.33,8.33,0,0,0-3.61-.78,8,8,0,0,0-4,1A7.49,7.49,0,0,0,4.25,8.64a7.66,7.66,0,0,0-1,3.91A7.34,7.34,0,0,0,5.5,18a7.77,7.77,0,0,0,5.68,2.2,8,8,0,0,0,6.31-2.95l1.42,1.07A9,9,0,0,1,15.56,21a10.43,10.43,0,0,1-4.49.94,9.32,9.32,0,0,1-7.43-3.14,9.49,9.49,0,0,1-2.28-6.4A8.88,8.88,0,0,1,4.12,5.76a9.5,9.5,0,0,1,6.93-2.69,10.22,10.22,0,0,1,4.54,1A8.74,8.74,0,0,1,18.91,6.85Z" transform="translate(-1.36 -2.72)"/><path class="cls-2" d="M33.41,17.07l1.44.75a7.79,7.79,0,0,1-1.64,2.25,6.56,6.56,0,0,1-2.08,1.3,7.25,7.25,0,0,1-2.63.45,6.34,6.34,0,0,1-5.08-2.13,7.27,7.27,0,0,1-.29-9.32A6.36,6.36,0,0,1,28.4,7.85a6.56,6.56,0,0,1,5.43,2.58A7.2,7.2,0,0,1,35.29,15H23.34a5.4,5.4,0,0,0,1.48,3.79,4.7,4.7,0,0,0,3.53,1.48,5.82,5.82,0,0,0,2-.35A5.28,5.28,0,0,0,32,19,7.81,7.81,0,0,0,33.41,17.07Zm0-3.58a5.73,5.73,0,0,0-1-2.18A4.72,4.72,0,0,0,30.69,10a5.21,5.21,0,0,0-2.26-.5,4.92,4.92,0,0,0-3.37,1.25,5.78,5.78,0,0,0-1.55,2.75Z" transform="translate(-1.36 -2.72)"/><path class="cls-2" d="M38.48,8.19h1.71v2.38a7.09,7.09,0,0,1,2.27-2,5.59,5.59,0,0,1,2.71-.68,4.67,4.67,0,0,1,2.64.76,4.41,4.41,0,0,1,1.7,2,10.66,10.66,0,0,1,.55,4v6.83H48.35V15.14a15.29,15.29,0,0,0-.19-3.06,3.32,3.32,0,0,0-1.14-2,3.44,3.44,0,0,0-2.19-.66,4.23,4.23,0,0,0-2.78,1A4.78,4.78,0,0,0,40.43,13a17.92,17.92,0,0,0-.24,3.61v4.87H38.48Z" transform="translate(-1.36 -2.72)"/><path class="cls-2" d="M55.21,3.26h1.71V8.19h2.71V9.67H56.92v11.8H55.21V9.67H52.88V8.19h2.33Z" transform="translate(-1.36 -2.72)"/><path class="cls-2" d="M62,8.19h1.7v6.2a13.33,13.33,0,0,0,.25,3.13,3.47,3.47,0,0,0,1.4,1.93,4.27,4.27,0,0,0,2.46.71,4.17,4.17,0,0,0,2.43-.69,3.54,3.54,0,0,0,1.37-1.82,12.33,12.33,0,0,0,.26-3.26V8.19H73.6v6.52A10.46,10.46,0,0,1,73,18.85,4.92,4.92,0,0,1,71,21a7,7,0,0,1-6.47,0,4.83,4.83,0,0,1-1.94-2.2A10.67,10.67,0,0,1,62,14.59Z" transform="translate(-1.36 -2.72)"/><path class="cls-2" d="M76.75,8.19h1.74v1.94a6.16,6.16,0,0,1,1.65-1.71A3.25,3.25,0,0,1,82,7.85a3.13,3.13,0,0,1,1.51.45l-.89,1.44a2.47,2.47,0,0,0-.9-.23,2.51,2.51,0,0,0-1.65.7,4.49,4.49,0,0,0-1.21,2.18A21,21,0,0,0,78.49,17v4.49H76.75Z" transform="translate(-1.36 -2.72)"/><path class="cls-2" d="M83.49,8.19h1.8l4.57,10.23L94.29,8.19h1.82L88.18,26.33h-1.8l2.56-5.86Z" transform="translate(-1.36 -2.72)"/><path class="cls-2" d="M122.84,6.53l-1.39,1.32a10.75,10.75,0,0,0-3.29-2.24,8.84,8.84,0,0,0-3.49-.76,8.25,8.25,0,0,0-4,1,7.56,7.56,0,0,0-3,2.81,7.23,7.23,0,0,0-1,3.75,7.34,7.34,0,0,0,1.09,3.85,7.61,7.61,0,0,0,3,2.87,8.61,8.61,0,0,0,4.2,1,7.14,7.14,0,0,0,4.69-1.57,6.2,6.2,0,0,0,2.27-4h-5.73V12.87h7.74a9,9,0,0,1-2.47,6.61,8.85,8.85,0,0,1-6.55,2.45,9.83,9.83,0,0,1-7.88-3.4,9,9,0,0,1-2.24-6A9.33,9.33,0,0,1,106,7.74a9.13,9.13,0,0,1,3.52-3.43,10.19,10.19,0,0,1,5-1.24,11.23,11.23,0,0,1,4.3.82A12.93,12.93,0,0,1,122.84,6.53Z" transform="translate(-1.36 -2.72)"/><path class="cls-2" d="M133.33,7.85a6.57,6.57,0,0,1,5.08,2.22,6.88,6.88,0,0,1,1.84,4.8,6.93,6.93,0,0,1-1.94,4.87,7,7,0,0,1-10,0,6.93,6.93,0,0,1-1.94-4.87,6.85,6.85,0,0,1,1.84-4.78A6.56,6.56,0,0,1,133.33,7.85Zm0,1.67a4.93,4.93,0,0,0-3.66,1.58,5.27,5.27,0,0,0-1.53,3.81,5.43,5.43,0,0,0,.69,2.68,5.08,5.08,0,0,0,1.89,1.93,5.42,5.42,0,0,0,5.22,0,5.08,5.08,0,0,0,1.89-1.93,5.43,5.43,0,0,0,.69-2.68A5.27,5.27,0,0,0,137,11.1,5,5,0,0,0,133.32,9.52Z" transform="translate(-1.36 -2.72)"/><path class="cls-2" d="M144.9,3.26h1.71V8.19h2.71V9.67h-2.71v11.8H144.9V9.67h-2.33V8.19h2.33Z" transform="translate(-1.36 -2.72)"/><path class="cls-2" d="M151.88,3.07h1.71v7.5a7.22,7.22,0,0,1,2.28-2,5.58,5.58,0,0,1,2.7-.68,4.67,4.67,0,0,1,2.64.76,4.52,4.52,0,0,1,1.71,2,10.9,10.9,0,0,1,.55,4v6.83h-1.71V15.14a15.29,15.29,0,0,0-.19-3.06,3.48,3.48,0,0,0-1.15-2,3.44,3.44,0,0,0-2.19-.66,4.25,4.25,0,0,0-2.78,1A4.78,4.78,0,0,0,153.83,13a17.85,17.85,0,0,0-.24,3.61v4.87h-1.71Z" transform="translate(-1.36 -2.72)"/><path class="cls-2" d="M167.72,2.72a1.36,1.36,0,0,1,1,.42,1.41,1.41,0,0,1,0,2,1.35,1.35,0,0,1-1,.41,1.31,1.31,0,0,1-1-.41,1.39,1.39,0,0,1,0-2A1.32,1.32,0,0,1,167.72,2.72Zm-.85,5.47h1.71V21.47h-1.71Z" transform="translate(-1.36 -2.72)"/><path class="cls-2" d="M185,11l-1.35.84a5.69,5.69,0,0,0-4.79-2.33,5.54,5.54,0,0,0-4,1.56,5.11,5.11,0,0,0-1.61,3.8,5.44,5.44,0,0,0,.74,2.73,5.15,5.15,0,0,0,2,2,5.75,5.75,0,0,0,2.88.71,5.85,5.85,0,0,0,4.78-2.33l1.35.89A6.35,6.35,0,0,1,182.47,21a8.27,8.27,0,0,1-3.66.79,7.19,7.19,0,0,1-5.22-2,6.47,6.47,0,0,1-2.08-4.87,7,7,0,0,1,3.64-6.16,7.77,7.77,0,0,1,3.79-.93,8.39,8.39,0,0,1,2.55.4,7.11,7.11,0,0,1,2.08,1.05A5.79,5.79,0,0,1,185,11Z" transform="translate(-1.36 -2.72)"/></g></g></svg>