<svg xmlns="http://www.w3.org/2000/svg" viewBox="0 0 293.14 105.73"><defs><style>.cls-1{fill:#db7d56;}.cls-2{fill:#e4cebf;}</style></defs><title>trinket_logo</title><g id="Layer_2" data-name="Layer 2"><g id="Layer_1-2" data-name="Layer 1"><path class="cls-1" d="M20.88,30.9V91.2c0,3.8,1.73,7,5.88,7a10.17,10.17,0,0,0,6.46-2.42v7.61a13.23,13.23,0,0,1-8.07,2.31C17,105.73,12.58,100,12.58,92V0h8.3V30.9Z"/><path class="cls-1" d="M280.81,30.9V91.2c0,3.8,1.73,7,5.88,7a10.16,10.16,0,0,0,6.45-2.42v7.61a13.23,13.23,0,0,1-8.07,2.31c-8.18,0-12.57-5.77-12.57-13.72V0h8.31V30.9Z"/><path class="cls-1" d="M67.23,76.55a5.72,5.72,0,0,1-5.65-4A11.71,11.71,0,0,0,55.47,80,14.1,14.1,0,0,0,55,82.09v22.6h-8.3V64H55v7C57.43,66.52,61.7,63,66.89,63a7,7,0,0,1,7,6.92A6.69,6.69,0,0,1,67.23,76.55Z"/><path class="cls-1" d="M92.13,56.09a6.4,6.4,0,1,1,3.42-3.43A6.4,6.4,0,0,1,92.13,56.09Zm13.15,47.33a14.63,14.63,0,0,1-8.53,2.31c-6.92,0-11.3-6-11.3-12.57V64h8.3V92.35c0,3.23,2.08,5.77,5.54,5.77a8.31,8.31,0,0,0,6-2.31Z"/><path class="cls-1" d="M162.82,103.42a15.11,15.11,0,0,1-8.53,2.31c-7,0-11.3-6-11.3-12.57V79.78c0-5.65-3-9.68-8.88-9.68-5.54,0-10.15,5.42-10.15,12.1v22.49h-8.3V64H124v6a13.37,13.37,0,0,1,11.88-7c9.46,0,15.45,6.92,15.45,16.14V92.35c0,3.35,2.08,5.77,5.65,5.77a8.25,8.25,0,0,0,5.88-2.31Z"/><path class="cls-1" d="M218.75,103.54a16,16,0,0,1-8.31,2.19c-6.57,0-10.61-5.54-13.83-10.61s-6.46-7.73-12.92-7.73H181.5v17.3h-8.3V22.82h8.3V80.24h.92c10.5,0,16.72-5.53,16.72-16.25h8.31c0,9.22-5,17.87-14.53,19.71,5.19,1.16,7.84,4.62,10.37,8.08s4.85,6.45,9.11,6.45a12.41,12.41,0,0,0,6.35-2Z"/><path class="cls-1" d="M239.5,96a14.37,14.37,0,0,0,8.07,2.42c4.38,0,9-.92,12.57-3.69v8.31a28,28,0,0,1-12.57,2.65c-12.34,0-22.49-8.88-22.49-21.57C225.08,72.75,234.54,63,246,63a21.79,21.79,0,0,1,17.75,9.11ZM253.22,73a11.9,11.9,0,0,0-7.49-2.65c-7.73,0-13,6.34-13,13.83a12.86,12.86,0,0,0,2.19,7.38Z"/><rect class="cls-1" x="173.2" width="8.29" height="38.68"/><rect class="cls-2" y="22.82" width="293.14" height="7.96"/><path class="cls-2" d="M43.87,22.33a.27.27,0,0,1,.21.26v.6H42.63a.94.94,0,0,1-.3-.06c-.08,0-.11-.11-.13-.22l-.14-.67-.56.46a2.46,2.46,0,0,1-.56.34,4.84,4.84,0,0,1-.61.21,3.45,3.45,0,0,1-.75.06,2.33,2.33,0,0,1-.76-.12,1.62,1.62,0,0,1-.62-.34,1.7,1.7,0,0,1-.42-.58,2,2,0,0,1-.15-.84,1.56,1.56,0,0,1,.22-.8,2.13,2.13,0,0,1,.75-.7,4.48,4.48,0,0,1,1.34-.5,9.09,9.09,0,0,1,2-.18V18.7a1.88,1.88,0,0,0-.36-1.25,1.29,1.29,0,0,0-1-.43,2.15,2.15,0,0,0-.77.12,4.46,4.46,0,0,0-.53.25c-.15.1-.29.17-.4.26a.54.54,0,0,1-.32.11.41.41,0,0,1-.23-.06.58.58,0,0,1-.14-.17L38,17.14a4.26,4.26,0,0,1,1.25-.83A3.66,3.66,0,0,1,40.72,16a2.57,2.57,0,0,1,1.06.19,2.46,2.46,0,0,1,.76.53,2.23,2.23,0,0,1,.48.84,3.46,3.46,0,0,1,.15,1.09V22.2l.7.15ZM41.94,20a8.39,8.39,0,0,0-1.44.1,4.44,4.44,0,0,0-1,.29,1.25,1.25,0,0,0-.56.42.92.92,0,0,0-.16.53,1.31,1.31,0,0,0,.09.47.86.86,0,0,0,.25.34,1.27,1.27,0,0,0,.37.18,1.64,1.64,0,0,0,.46.07,2.56,2.56,0,0,0,.58-.07,2.47,2.47,0,0,0,.52-.18,3.35,3.35,0,0,0,.87-.7Z"/><path class="cls-2" d="M47.1,17.6A2.39,2.39,0,0,1,49.25,16a1.81,1.81,0,0,1,1,.25l-.16.93a.19.19,0,0,1-.18.18,1,1,0,0,1-.33-.07,2,2,0,0,0-.57-.07,2,2,0,0,0-1.81,1.48v3.48l.79.16a.24.24,0,0,1,.21.26v.59H44.91v-.59a.24.24,0,0,1,.21-.26l.8-.16v-5c-.45-.09-.71-.14-.8-.17a.25.25,0,0,1-.21-.27v-.58h1.72c.14,0,.21,0,.26.07a.49.49,0,0,1,.11.26l.09,1.1Z"/><path class="cls-2" d="M52.2,22.85a1.77,1.77,0,0,1-.45-1.33V17.2H50.9a.24.24,0,0,1-.19-.06c-.06,0-.07-.12-.07-.21v-.48l1.16-.16.27-2.18a.2.2,0,0,1,.09-.17.29.29,0,0,1,.19-.06H53v2.43h2v.9H53v4.24a.93.93,0,0,0,.21.67.8.8,0,0,0,.57.21,1.16,1.16,0,0,0,.35-.06l.25-.11a1.2,1.2,0,0,1,.17-.11l.13-.06a.2.2,0,0,1,.17.11l.36.59a2.42,2.42,0,0,1-.78.47,2.69,2.69,0,0,1-.93.17A1.71,1.71,0,0,1,52.2,22.85Z"/><path class="cls-2" d="M56.14,22.37a.82.82,0,0,1,.07-.31.74.74,0,0,1,.17-.25.79.79,0,0,1,.25-.17,1,1,0,0,1,.33-.07.83.83,0,0,1,.39.09.64.64,0,0,1,.27.21.79.79,0,0,1,.15.32,1.36,1.36,0,0,1,.06.37,2.61,2.61,0,0,1-.09.66,2.75,2.75,0,0,1-.25.67,4.06,4.06,0,0,1-.41.64,4,4,0,0,1-.58.58l-.2-.21a.23.23,0,0,1-.09-.19.24.24,0,0,1,.09-.18l.19-.21c.07-.09.14-.18.22-.3a1.39,1.39,0,0,0,.2-.36,3.22,3.22,0,0,0,.14-.44H57a.92.92,0,0,1-.33-.06.64.64,0,0,1-.25-.18.78.78,0,0,1-.17-.26,1.14,1.14,0,0,1-.05-.37Z"/><path class="cls-2" d="M64.81,23.31a2.79,2.79,0,0,1-2.2-1,3.84,3.84,0,0,1-.91-2.67,3.85,3.85,0,0,1,.85-2.61,3.15,3.15,0,0,1,2.48-1,6,6,0,0,1,2.09.5V18.4h-.56a.2.2,0,0,1-.23-.2,4.26,4.26,0,0,1-.06-.53c0-.3,0-.44,0-.46-.22-.07-.39-.09-.5-.12A5.43,5.43,0,0,0,65,17a2,2,0,0,0-.77.18,1.81,1.81,0,0,0-.65.52A3.06,3.06,0,0,0,63,19.68a3.25,3.25,0,0,0,.55,2,1.79,1.79,0,0,0,1.49.69,2.28,2.28,0,0,0,1.55-.58.38.38,0,0,1,.28-.11.23.23,0,0,1,.22.11l.34.46A3.21,3.21,0,0,1,64.81,23.31Z"/><path class="cls-2" d="M71.65,22.35a2.56,2.56,0,0,0,1.91-1V17.2c-.09,0-.35-.08-.8-.17a.24.24,0,0,1-.21-.26v-.6H74.8v6c.44.09.71.14.79.17a.23.23,0,0,1,.21.25v.6H74.06a.35.35,0,0,1-.34-.26l-.09-.76a3,3,0,0,1-2.34,1.13,2.19,2.19,0,0,1-1.76-.74,2.91,2.91,0,0,1-.61-1.93V17.19c-.45-.09-.7-.14-.78-.17a.27.27,0,0,1-.23-.27v-.58h2.26v4.48a1.93,1.93,0,0,0,.36,1.26,1.39,1.39,0,0,0,1.12.43Z"/><path class="cls-2" d="M79.87,22.62v.6H76.61v-.6a.26.26,0,0,1,.22-.27l.78-.15V14c-.45-.09-.7-.14-.78-.17a.24.24,0,0,1-.22-.25V13h2.25v9.24c.45.08.7.14.78.16A.27.27,0,0,1,79.87,22.62Z"/><path class="cls-2" d="M81.94,22.85a1.81,1.81,0,0,1-.44-1.33V17.2h-.85a.23.23,0,0,1-.27-.27v-.48l1.16-.16.28-2.18a.21.21,0,0,1,.08-.17.32.32,0,0,1,.2-.06h.62v2.43h2v.9h-2v4.24a.93.93,0,0,0,.21.67.8.8,0,0,0,.57.21,1.16,1.16,0,0,0,.35-.06,1.17,1.17,0,0,0,.25-.11,1.2,1.2,0,0,1,.17-.11.48.48,0,0,1,.14-.06.23.23,0,0,1,.17.11l.36.59a2.54,2.54,0,0,1-.78.47,2.73,2.73,0,0,1-.93.17A1.74,1.74,0,0,1,81.94,22.85Z"/><path class="cls-2" d="M89.19,22.35a2.56,2.56,0,0,0,1.91-1V17.2c-.09,0-.35-.08-.8-.17a.24.24,0,0,1-.21-.26v-.6h2.25v6c.44.09.71.14.79.17a.23.23,0,0,1,.21.25v.6H91.6a.35.35,0,0,1-.34-.26l-.09-.76a3,3,0,0,1-2.34,1.13,2.19,2.19,0,0,1-1.76-.74,2.91,2.91,0,0,1-.61-1.93V17.19c-.45-.09-.7-.14-.78-.17a.27.27,0,0,1-.23-.27v-.58h2.26v4.48a1.93,1.93,0,0,0,.36,1.26,1.39,1.39,0,0,0,1.12.43Z"/><path class="cls-2" d="M96.36,17.6A2.39,2.39,0,0,1,98.51,16a1.81,1.81,0,0,1,1,.25l-.15.93c0,.11-.1.18-.18.18a1,1,0,0,1-.34-.07,2,2,0,0,0-.57-.07,2,2,0,0,0-1.81,1.48v3.48l.79.16a.24.24,0,0,1,.21.26v.59H94.18v-.59a.23.23,0,0,1,.2-.26l.8-.16v-5c-.45-.09-.71-.14-.8-.17a.24.24,0,0,1-.2-.27v-.58h1.71c.14,0,.21,0,.26.07a.49.49,0,0,1,.12.26l.08,1.1Z"/><path class="cls-2" d="M103,16.06a3.28,3.28,0,0,1,1.17.21,2.47,2.47,0,0,1,.92.59,2.91,2.91,0,0,1,.61,1,4,4,0,0,1,.22,1.34.82.82,0,0,1,0,.39.33.33,0,0,1-.26.1H101a3.79,3.79,0,0,0,.17,1.17,2.47,2.47,0,0,0,.47.81,1.84,1.84,0,0,0,.7.5,2.35,2.35,0,0,0,.89.17,2.76,2.76,0,0,0,.81-.1,4.81,4.81,0,0,0,.59-.24c.16-.08.3-.15.41-.22a.59.59,0,0,1,.28-.11.27.27,0,0,1,.24.12l.35.46a2.16,2.16,0,0,1-.56.48,3.32,3.32,0,0,1-.68.34,4.17,4.17,0,0,1-.75.2,5.12,5.12,0,0,1-.77.07,3.52,3.52,0,0,1-1.35-.25,3.11,3.11,0,0,1-1.08-.74,3.35,3.35,0,0,1-.69-1.18,4.79,4.79,0,0,1-.25-1.62,3.79,3.79,0,0,1,.24-1.37,3.42,3.42,0,0,1,.65-1.11,3,3,0,0,1,1-.74,3.46,3.46,0,0,1,1.38-.26Zm0,.9a1.86,1.86,0,0,0-1.41.52,2.53,2.53,0,0,0-.64,1.45h3.83a2.41,2.41,0,0,0-.12-.78,2,2,0,0,0-.34-.63,1.55,1.55,0,0,0-.57-.4,1.89,1.89,0,0,0-.77-.14Z"/><path class="cls-2" d="M113.64,13.16a2.73,2.73,0,0,1,1,.17,2.45,2.45,0,0,1,.8.47,2.21,2.21,0,0,1,.51.67,2.08,2.08,0,0,1,.22.81l-.76.15h-.07a.37.37,0,0,1-.17,0c-.06,0-.08-.09-.11-.17a2.18,2.18,0,0,0-.15-.39,1.31,1.31,0,0,0-.27-.35,1.25,1.25,0,0,0-.42-.26,1.31,1.31,0,0,0-.55-.11,1.49,1.49,0,0,0-.64.11,1.35,1.35,0,0,0-.48.32,1.29,1.29,0,0,0-.31.46,1.58,1.58,0,0,0-.11.58,1.79,1.79,0,0,0,.07.48,2.27,2.27,0,0,0,.18.44,4.39,4.39,0,0,0,.76,1L116,20.38a7,7,0,0,0,.41-1,4.24,4.24,0,0,0,.23-1,.26.26,0,0,1,.08-.2.28.28,0,0,1,.2-.08h.75a5.26,5.26,0,0,1-.25,1.57,5.4,5.4,0,0,1-.7,1.45l2.09,2.12h-1.2a1,1,0,0,1-.33,0A.83.83,0,0,1,117,23l-1-1a5.33,5.33,0,0,1-1.51,1,4.63,4.63,0,0,1-1.88.36,3.5,3.5,0,0,1-1.09-.18,3,3,0,0,1-1-.55,2.55,2.55,0,0,1-.92-2,2.55,2.55,0,0,1,.17-.92,2.94,2.94,0,0,1,.45-.81,3.66,3.66,0,0,1,.69-.67,5.32,5.32,0,0,1,.87-.5,4.66,4.66,0,0,1-.62-1,2.73,2.73,0,0,1-.21-1,2.47,2.47,0,0,1,.19-1,2.35,2.35,0,0,1,1.39-1.3,3.23,3.23,0,0,1,1.11-.18Zm-2.75,7.31a1.81,1.81,0,0,0,.17.8,1.91,1.91,0,0,0,.43.58,1.81,1.81,0,0,0,.63.36,1.87,1.87,0,0,0,.71.13,3.23,3.23,0,0,0,1.39-.29,3.87,3.87,0,0,0,1.09-.76l-2.94-3a3,3,0,0,0-1.11.94,2.05,2.05,0,0,0-.38,1.22Z"/><path class="cls-2" d="M125.42,16a2.53,2.53,0,0,1,1.94.83V14l-.93-.17a.23.23,0,0,1-.21-.25v-.61h2.37v9.25l.81.16a.23.23,0,0,1,.19.25v.62h-1.73a.33.33,0,0,1-.33-.27l-.11-.85a3,3,0,0,1-2.37,1.2,2.32,2.32,0,0,1-2-.92,4.29,4.29,0,0,1-.73-2.67,4,4,0,0,1,.83-2.62A2.71,2.71,0,0,1,125.44,16Zm0,6.28a2.34,2.34,0,0,0,1.89-1.07v-3.4a1.94,1.94,0,0,0-1.63-.84,1.85,1.85,0,0,0-1.55.7,3.25,3.25,0,0,0-.53,2c0,1.33.34,2.14,1,2.45a1.84,1.84,0,0,0,.76.14Z"/><path class="cls-2" d="M133.49,16.06a3.2,3.2,0,0,1,1.17.21,2.39,2.39,0,0,1,.92.59,2.91,2.91,0,0,1,.61,1,4,4,0,0,1,.23,1.34.79.79,0,0,1-.06.39.31.31,0,0,1-.25.1h-4.68a3.79,3.79,0,0,0,.17,1.17,2.3,2.3,0,0,0,.47.81,1.84,1.84,0,0,0,.7.5,2.31,2.31,0,0,0,.89.17,2.85,2.85,0,0,0,.81-.1,4.62,4.62,0,0,0,.58-.24,3.92,3.92,0,0,0,.42-.22.53.53,0,0,1,.28-.11.27.27,0,0,1,.24.12l.34.46a2,2,0,0,1-.55.48,3.68,3.68,0,0,1-.69.34,4.17,4.17,0,0,1-.75.2,5,5,0,0,1-.77.07,3.56,3.56,0,0,1-1.35-.25,3.16,3.16,0,0,1-1.07-.74,3.22,3.22,0,0,1-.7-1.18,5.06,5.06,0,0,1-.25-1.62,4,4,0,0,1,.24-1.37,3.61,3.61,0,0,1,.65-1.11,3,3,0,0,1,1-.74,3.46,3.46,0,0,1,1.38-.26Zm0,.9a1.83,1.83,0,0,0-1.4.52,2.47,2.47,0,0,0-.64,1.45h3.83a2.41,2.41,0,0,0-.13-.78,1.8,1.8,0,0,0-.33-.63,1.59,1.59,0,0,0-.58-.4,1.84,1.84,0,0,0-.76-.14Z"/><path class="cls-2" d="M140,16.06a6,6,0,0,1,1.84.37v1.81h-.55c-.14,0-.21,0-.23-.19s0-.34-.09-.92a4.78,4.78,0,0,0-1.08-.15h0a1.55,1.55,0,0,0-1,.3.84.84,0,0,0-.38.64.73.73,0,0,0,.17.53,1.69,1.69,0,0,0,.81.49c.35.11.64.18.86.26l.67.26a2,2,0,0,1,.59.36A1.45,1.45,0,0,1,142.2,21a2,2,0,0,1-.68,1.62,2.78,2.78,0,0,1-1.87.65,7.36,7.36,0,0,1-2.29-.37V21.1h.51a.19.19,0,0,1,.2.17s0,.33.09.89a3.29,3.29,0,0,0,1.43.28,1.67,1.67,0,0,0,1.09-.35.93.93,0,0,0,.36-.71.83.83,0,0,0-.17-.59,1.49,1.49,0,0,0-.41-.33,2.9,2.9,0,0,0-.59-.22c-.61-.2-1-.34-1.29-.45a2.52,2.52,0,0,1-.63-.39,1.6,1.6,0,0,1-.59-1.31,1.82,1.82,0,0,1,.67-1.42,2.86,2.86,0,0,1,2-.61Z"/><path class="cls-2" d="M146.17,22.62v.6h-3.25v-.6a.28.28,0,0,1,.21-.27l.81-.15v-5l-.81-.15a.28.28,0,0,1-.21-.27v-.58h2.25v6l.79.15A.27.27,0,0,1,146.17,22.62Zm-2.43-8.33a.82.82,0,0,1-.06-.34.89.89,0,0,1,.06-.35,1.49,1.49,0,0,1,.2-.29.92.92,0,0,1,.28-.19.66.66,0,0,1,.33-.07.69.69,0,0,1,.34.07,1.07,1.07,0,0,1,.28.19,1.12,1.12,0,0,1,.19.29.77.77,0,0,1,.08.35.71.71,0,0,1-.08.34.9.9,0,0,1-.47.47.69.69,0,0,1-.34.07.66.66,0,0,1-.33-.07.92.92,0,0,1-.28-.19A1.42,1.42,0,0,1,143.74,14.29Z"/><path class="cls-2" d="M149.71,16.07a3.36,3.36,0,0,1,.85.1,2.88,2.88,0,0,1,.72.3h1.92v.46c0,.16-.09.26-.29.3l-.79.11a2.12,2.12,0,0,1,.22,1,2.15,2.15,0,0,1-.19.93,2,2,0,0,1-.55.71,2.62,2.62,0,0,1-.83.48,3.24,3.24,0,0,1-1.06.15,3.56,3.56,0,0,1-.94-.12,1.07,1.07,0,0,0-.33.3.49.49,0,0,0-.11.31.4.4,0,0,0,.19.38,1.48,1.48,0,0,0,.55.18,5.7,5.7,0,0,0,.76.05c.28,0,.57,0,.87.06a8.08,8.08,0,0,1,.86.1,3,3,0,0,1,.77.25,1.56,1.56,0,0,1,.54.48,1.31,1.31,0,0,1,.2.78,1.8,1.8,0,0,1-.23.9,2.61,2.61,0,0,1-.67.75,3.21,3.21,0,0,1-1,.53,4.37,4.37,0,0,1-1.39.19,5.13,5.13,0,0,1-1.37-.15,3.3,3.3,0,0,1-1-.42,1.8,1.8,0,0,1-.57-.6,1.4,1.4,0,0,1-.19-.69A1.33,1.33,0,0,1,147,23a2.17,2.17,0,0,1,.92-.58,1.1,1.1,0,0,1-.47-.38,1,1,0,0,1-.18-.62,1.06,1.06,0,0,1,.05-.31,1,1,0,0,1,.17-.33,1.7,1.7,0,0,1,.29-.31,2.17,2.17,0,0,1,.39-.25,2.2,2.2,0,0,1-.82-.78,2.09,2.09,0,0,1-.29-1.13,2,2,0,0,1,.75-1.64,2.62,2.62,0,0,1,.86-.46,3.17,3.17,0,0,1,1.08-.16Zm2.21,7.57a.59.59,0,0,0-.14-.42.81.81,0,0,0-.4-.25,2.82,2.82,0,0,0-.57-.13l-.7-.07-.74,0c-.25,0-.48,0-.71-.08a2.29,2.29,0,0,0-.65.46.91.91,0,0,0-.25.65.87.87,0,0,0,.12.45,1.08,1.08,0,0,0,.38.35,2.18,2.18,0,0,0,.63.24,4.59,4.59,0,0,0,.89.08,4,4,0,0,0,.89-.1,2,2,0,0,0,.67-.26,1.32,1.32,0,0,0,.42-.39,1,1,0,0,0,.15-.5Zm-2.2-3.82a2,2,0,0,0,.67-.11,1.35,1.35,0,0,0,.49-.3,1.06,1.06,0,0,0,.29-.46,1.66,1.66,0,0,0,.1-.57,1.35,1.35,0,0,0-.41-1,1.94,1.94,0,0,0-2.28,0,1.33,1.33,0,0,0-.39,1,1.45,1.45,0,0,0,.11.57,1.2,1.2,0,0,0,.29.45,1.42,1.42,0,0,0,.49.29,1.83,1.83,0,0,0,.64.1Z"/><path class="cls-2" d="M156.23,17.17A3.12,3.12,0,0,1,158.57,16a2.14,2.14,0,0,1,1.75.74,3,3,0,0,1,.6,1.94v3.47c.45.08.71.14.8.16a.26.26,0,0,1,.22.27v.6h-2.26V18.73c0-1.11-.49-1.7-1.47-1.7a2.6,2.6,0,0,0-1.93,1V22.2l.81.17a.24.24,0,0,1,.21.26v.59h-3.25v-.59a.23.23,0,0,1,.2-.26l.81-.16v-5c-.45-.09-.73-.14-.81-.17a.24.24,0,0,1-.2-.27v-.58h1.73a.33.33,0,0,1,.34.25l.11.77Z"/></g></g></svg>