<svg xmlns="http://www.w3.org/2000/svg" viewBox="0 0 434.68 227.78"><defs><style>.cls-1{fill:#d85927;}.cls-2{fill:#393e61;}.cls-3{fill:#f0ad46;}.cls-4{fill:#3db7b1;}</style></defs><g id="Layer_2" data-name="Layer 2"><g id="Layer_1-2" data-name="Layer 1"><path class="cls-1" d="M103.61,134.41q0,4.43-1.63,6.72a6,6,0,0,1-9.43,0c-1.09-1.5-1.63-3.76-1.63-6.76V93.32h33.4l.16-20.95H90.92V48.23H65.53V72.37H51.25V93.32H65.53v41.09a40.55,40.55,0,0,0,3.18,16.7,23.73,23.73,0,0,0,9.81,11q6.63,3.92,17.07,3.92t17-3.84a22.9,22.9,0,0,0,9.68-11,42.57,42.57,0,0,0,3.09-17v-8.6H103.61Z"/><path class="cls-1" d="M225.65,107.68q0-13.28-6.33-20.62t-19-7.35a30.47,30.47,0,0,0-14.13,3.11,24.27,24.27,0,0,0-9.79,9.38,40.94,40.94,0,0,0-5,15.63h-.82V45.88H135.28V64.63h12.45v81H135.28v18.75h45.9V145.63H170.53v-20a37,37,0,0,1,2.66-14.89,20.94,20.94,0,0,1,7.13-9.11,17,17,0,0,1,9.86-3.08q6.3,0,9.49,4.09t3.18,11.06v31.95h-10.5v18.75h45.23V145.63H225.65Z"/><path class="cls-1" d="M324.65,109q0-10.2-4.2-16.65a24.34,24.34,0,0,0-12.26-9.49q-8.07-3-19.69-3-12.37,0-20.62,3.23a28.39,28.39,0,0,0-12.83,9.37,33,33,0,0,0-5.92,14.93l21,3.22q1.28-5.93,5.51-8.66t11-2.74a22.34,22.34,0,0,1,8.21,1.35,10.62,10.62,0,0,1,5.21,4.17,12.87,12.87,0,0,1,1.8,7.08v1.62l-27.67,5.21q-14.25,2.55-20.93,8.14t-6.67,16.23q0,10.95,6.67,16.95t19.65,6q12.08,0,19.35-6.22t8.93-18.75h.67v12.15q0,5.4,2.66,8.36c1.78,2,4.32,3,7.62,3h22.42V145.56h-9.9Zm-24.9,27.79a20.63,20.63,0,0,1-7.61,8.58,20.17,20.17,0,0,1-10.84,3q-5.25,0-8.06-2.32a8.24,8.24,0,0,1-2.81-6.75,9.06,9.06,0,0,1,2.47-6.64q2.48-2.51,7.88-3.56l21.72-4.64A29.1,29.1,0,0,1,299.75,136.75Z"/><path class="cls-1" d="M429.05,100.71a39.32,39.32,0,0,0-15.86-15.23Q403,80,389.3,80t-23.92,5.47a39.66,39.66,0,0,0-15.87,15.23,44.16,44.16,0,0,0-5.66,22.57,43.25,43.25,0,0,0,5.66,22.31,39.57,39.57,0,0,0,15.87,15.08q10.2,5.45,23.92,5.44t23.93-5.44a39.25,39.25,0,0,0,15.82-15.08,43.43,43.43,0,0,0,5.63-22.31A44.35,44.35,0,0,0,429.05,100.71Zm-20.7,34.5a19.83,19.83,0,0,1-7.68,7.91,24.39,24.39,0,0,1-22.73,0,19.85,19.85,0,0,1-7.69-7.91,24.73,24.73,0,0,1-2.77-12,25.25,25.25,0,0,1,2.77-12,20.52,20.52,0,0,1,7.69-8.14,23.58,23.58,0,0,1,22.73,0,20.5,20.5,0,0,1,7.68,8.14,25.26,25.26,0,0,1,2.78,12A24.74,24.74,0,0,1,408.35,135.21Z"/><path class="cls-2" d="M6,90.64,8.28,93.1a3.51,3.51,0,0,0-1.45,4.44A3.88,3.88,0,0,0,9.31,100a6.29,6.29,0,0,0,4.17-.36,6.21,6.21,0,0,0,3.33-2.5,4.49,4.49,0,0,0-1.48-5.61,3.75,3.75,0,0,0-2.54-.39L12.67,88a6.29,6.29,0,0,1,4,1,7.35,7.35,0,0,1,2.7,3.65,7.55,7.55,0,0,1,0,6.11,8.14,8.14,0,0,1-4.79,4,8.21,8.21,0,0,1-6.27.2,7.49,7.49,0,0,1-4-4.53Q2.55,93.73,6,90.64Z"/><path class="cls-2" d="M.18,75.15l3.07.25a4.1,4.1,0,0,0-.22,2,3.6,3.6,0,0,0,.7,1.83,4,4,0,0,0,1.7,1.3A5.22,5.22,0,0,0,8,80.85l8.19-.74.3,3.3L1.06,84.82.8,82l2.76-.53A4.84,4.84,0,0,1,0,76.88,3.8,3.8,0,0,1,.18,75.15Z"/><path class="cls-2" d="M11.65,57.15l-2,11.17A5,5,0,0,0,13,67.44a4.36,4.36,0,0,0,1.59-2.81,5.24,5.24,0,0,0-.09-2.58,2.82,2.82,0,0,0-1.29-1.63l1.61-2.52q3.24,2.35,2.37,7.2A7.55,7.55,0,0,1,14,70.35a8.2,8.2,0,0,1-6.19,1,8.37,8.37,0,0,1-5.49-3,7.28,7.28,0,0,1-1.11-5.87,6.77,6.77,0,0,1,3-4.85A7.9,7.9,0,0,1,10,56.73,12.41,12.41,0,0,1,11.65,57.15ZM4.37,66a5,5,0,0,0,2.78,1.9l1.47-8.24a5.17,5.17,0,0,0-3.22.76,3.75,3.75,0,0,0-1.56,2.54A4,4,0,0,0,4.37,66Z"/><path class="cls-2" d="M24.05,41.61l1.87,1.25a4.81,4.81,0,0,1-.58,1.87,3.92,3.92,0,0,1-1.47,1.62,2.6,2.6,0,0,1-2.05.08,4.72,4.72,0,0,1,.49,2.66,7.83,7.83,0,0,1-.95,3,5.92,5.92,0,0,1-2.66,2.73,3.56,3.56,0,0,1-3.31-.2,3.86,3.86,0,0,1-2-2.8A9.68,9.68,0,0,1,14,47l1.27-3.79-.74-.39a3,3,0,0,0-2.38-.33,3.2,3.2,0,0,0-1.82,1.66A3.82,3.82,0,0,0,10.85,49L8.43,50.64a5.12,5.12,0,0,1-1.51-3.4A7.75,7.75,0,0,1,8,43a7.52,7.52,0,0,1,3.49-3.54,4.89,4.89,0,0,1,4.44.38l6.18,3.31a1.19,1.19,0,0,0,.89.18,1.2,1.2,0,0,0,.66-.65A4.42,4.42,0,0,0,24.05,41.61Zm-3.88,5.73a2.44,2.44,0,0,0-1.28-2.13l-1.64-.88-1,3.3a6.15,6.15,0,0,0-.37,2.51,1.78,1.78,0,0,0,.95,1.39,1.55,1.55,0,0,0,1.44.09,2.87,2.87,0,0,0,1.22-1.3A5.5,5.5,0,0,0,20.17,47.34Z"/><path class="cls-2" d="M33.72,33.65a5.44,5.44,0,0,1-.54,2,7.29,7.29,0,0,1-1.33,1.92,5.18,5.18,0,0,1-3.14,1.75A4.14,4.14,0,0,1,25.39,38L19,31.91l-2,2.14-1.88-1.8,2-2.13-2.63-2.5,1.61-3.05,3.31,3.14,3.73-3.93L25,25.57,21.29,29.5l6,5.68a2.1,2.1,0,0,0,1.62.7,2.36,2.36,0,0,0,1.53-.83,3.57,3.57,0,0,0,1-2.5Z"/><path class="cls-2" d="M44.64,20.35l-9.76,5.78a4.91,4.91,0,0,0,2.84,1.94,4.38,4.38,0,0,0,3.16-.63,5.33,5.33,0,0,0,1.9-1.75,2.89,2.89,0,0,0,.39-2.05l3-.42c.22,2.65-1.08,4.82-3.91,6.49a7.56,7.56,0,0,1-6,1.07,8.16,8.16,0,0,1-4.79-4,8.43,8.43,0,0,1-1.32-6.12A7.28,7.28,0,0,1,33.82,16,6.8,6.8,0,0,1,39.44,15a7.86,7.86,0,0,1,4.44,3.78A10.86,10.86,0,0,1,44.64,20.35Zm-11.43.25a5,5,0,0,0,.38,3.34l7.2-4.26a5.1,5.1,0,0,0-2.68-1.94,3.71,3.71,0,0,0-2.94.48A4,4,0,0,0,33.21,20.6Z"/><path class="cls-2" d="M60.13,0,64.7,22l-2.85.6-.75-2.67a5.19,5.19,0,0,1-1.56,2.61A6,6,0,0,1,56.63,24a6.34,6.34,0,0,1-5.37-1.06,8.66,8.66,0,0,1-3-5.4,8.82,8.82,0,0,1,.59-6.19,6.28,6.28,0,0,1,4.5-3.13,5.77,5.77,0,0,1,3.1.13A5.13,5.13,0,0,1,58.81,10L56.88.67Zm-.56,19.24a5.83,5.83,0,0,0,.34-4l-.07-.36a5.78,5.78,0,0,0-1.9-3.49,4.21,4.21,0,0,0-6.11,1.31,6.18,6.18,0,0,0-.3,4.1,6.2,6.2,0,0,0,1.91,3.65,4.17,4.17,0,0,0,6.13-1.24Z"/><path class="cls-2" d="M95.38,14.19a8.84,8.84,0,0,1-.16,6.21,8.76,8.76,0,0,1-3.62,5,6.29,6.29,0,0,1-5.44.4A5.83,5.83,0,0,1,83.4,24a5.35,5.35,0,0,1-1.21-2.86l-1.07,2.68-2.76-.93L85.55,1.56l3.14,1.06-3,9a5.11,5.11,0,0,1,2.57-1.29,6,6,0,0,1,3.08.25A6.23,6.23,0,0,1,95.38,14.19ZM89.75,22.7a6.32,6.32,0,0,0,2.34-3.39,6.21,6.21,0,0,0,.19-4.11,4.23,4.23,0,0,0-5.8-2.11A5.58,5.58,0,0,0,84.17,16l-.38,1.12a5.67,5.67,0,0,0,.06,3.75,3.86,3.86,0,0,0,2.46,2.17A3.8,3.8,0,0,0,89.75,22.7Z"/><path class="cls-2" d="M99.47,34.91a9.09,9.09,0,0,1-4.1,1.62A5.18,5.18,0,0,1,92,35.37a6.68,6.68,0,0,1-1.51-1.49,4.12,4.12,0,0,1-.69-1.69l2.29-1.47a3.11,3.11,0,0,0,1.37,2.41,2.49,2.49,0,0,0,1.54.55A3.94,3.94,0,0,0,97,33L98.49,32l1-4,3.13-12.32,3,2.22-3.07,9.85-1,2.87,2.75-1.93L112.5,23,115.26,25Z"/><rect class="cls-3" x="133.4" y="172.45" width="202" height="12"/><path class="cls-4" d="M148.6,215h-5.25v12.3h-8.62V193.61H150.8q6.12,0,9.41,2.75t3.29,8a10.61,10.61,0,0,1-1.69,6.12,9.85,9.85,0,0,1-4.89,3.62l8.57,13.21h-9.7Zm-5.25-6.22h6a6.54,6.54,0,0,0,4.08-1,3.93,3.93,0,0,0,1.27-3.26,3.86,3.86,0,0,0-1.27-3.21,6.54,6.54,0,0,0-4.08-1h-6Z"/><path class="cls-4" d="M193.46,195.16a14,14,0,0,1,5.69,6,22.85,22.85,0,0,1,0,18.61,14,14,0,0,1-5.69,6,19.78,19.78,0,0,1-17.62,0,13.84,13.84,0,0,1-5.71-6,22.75,22.75,0,0,1,0-18.61,13.84,13.84,0,0,1,5.71-6,19.87,19.87,0,0,1,17.62,0Zm-14.41,7.47q-1.94,2.66-1.94,7.81t1.94,7.8a7.24,7.24,0,0,0,11.2,0q1.91-2.66,1.91-7.8t-1.91-7.81a7.24,7.24,0,0,0-11.2,0Z"/><path class="cls-4" d="M233.54,198q4.22,4.35,4.21,12.47t-4.21,12.47q-4.2,4.35-12.11,4.36H207.15V193.61h14.28Q229.33,193.61,233.54,198Zm-6.75,20.12q2-2.55,2-7.65t-2-7.65c-1.33-1.7-3.4-2.55-6.23-2.55h-4.64v20.4h4.64C223.39,220.64,225.46,219.79,226.79,218.09Z"/><path class="cls-4" d="M257.64,215h-5.25v12.3h-8.62V193.61h16.07q6.12,0,9.4,2.75c2.2,1.84,3.29,4.49,3.29,8a10.6,10.6,0,0,1-1.68,6.12,9.83,9.83,0,0,1-4.9,3.62l8.57,13.21h-9.69Zm-5.25-6.22h6a6.5,6.5,0,0,0,4.08-1,3.93,3.93,0,0,0,1.28-3.26,3.87,3.87,0,0,0-1.28-3.21,6.5,6.5,0,0,0-4.08-1h-6Z"/><path class="cls-4" d="M287.68,227.27h-8.77V193.61h8.77Z"/><path class="cls-4" d="M325.32,209.06v18.21H319.2l-.26-4q-2.91,4.49-9.64,4.49a16.18,16.18,0,0,1-8.13-2,13.75,13.75,0,0,1-5.53-5.92,20.32,20.32,0,0,1-2-9.35,19.84,19.84,0,0,1,2-9.31,14.17,14.17,0,0,1,5.81-6,18.08,18.08,0,0,1,8.93-2.09,18.42,18.42,0,0,1,9.28,2,13.87,13.87,0,0,1,5.56,6.57l-8.11,3.22a6.17,6.17,0,0,0-2.3-3.72,6.88,6.88,0,0,0-4.18-1.23,7.11,7.11,0,0,0-5.94,2.65q-2.07,2.66-2.07,7.81,0,10.6,8.27,10.6a8.21,8.21,0,0,0,5-1.42,4.87,4.87,0,0,0,1.91-4.14V215h-8.36v-5.91Z"/><path class="cls-4" d="M361.48,213.55q0,7.08-3.78,10.66t-11.27,3.57q-7.44,0-11.24-3.57t-3.8-10.66V193.61h8.82V213.7a8.16,8.16,0,0,0,1.53,5.41,5.84,5.84,0,0,0,4.69,1.78q6.33,0,6.33-7.19V193.61h8.72Z"/><path class="cls-4" d="M395.24,220.48v6.79H368.36V193.61h26.22v6.78H377.13v6.83H391v6.38H377.13v6.88Z"/><path class="cls-4" d="M429.61,220.64v6.63H400.75v-6.33l18.82-20.7H401.1v-6.63H429v6.32l-18.72,20.71Z"/></g></g></svg>