<?xml version="1.0" encoding="UTF-8"?><svg id="Layer_2" xmlns="http://www.w3.org/2000/svg" viewBox="0 0 186.52 213.08"><defs><style>.cls-1{fill:#d65927;}</style></defs><g id="Layer_1-2"><path class="cls-1" d="M185.86,190.12h-14.97v-39.37c0-12.62-7.61-24.23-19.45-28.58-10.21-3.76-21.4-1.69-29.68,5.61l-13.92,12.28v-45.89l36.57-32.24c10.64-9.38,15.17-24.2,10.8-37.7-4.17-12.87-15.01-21.98-28.47-23.86-14.51-2.01-29.22,4.4-37.51,17.36-4,6.25-5.91,13.61-5.91,21.03v44.34s-34.03,30.9-34.03,30.9V17.68c0-.52-.42-.94-.94-.94H25.7c-.52,0-.94,.42-.94,.94v118.58L.23,158.53c-.14,.13-.23,.32-.23,.51v31.03c0,.6,.71,.92,1.16,.51l23.6-21.49v43.29c0,.38,.31,.69,.69,.69h38.86c.37,0,.66-.3,.66-.66v-21.64c0-.37-.3-.66-.66-.66h-15.03v-43.35l34.03-30.99v96.6c0,.38,.31,.69,.69,.69h23.14c.38,0,.69-.31,.69-.69v-39.64l30.14-26.57c2.13-1.88,4.31-1.32,5.42-.82,1.11,.5,2.97,1.77,2.97,4.61v62.43c0,.38,.31,.69,.69,.69h23.14s0,0,0,0h15.66c.37,0,.66-.3,.66-.66v-21.64c0-.37-.3-.66-.66-.66ZM107.84,38.53c0-6.13,1.57-9.08,4.63-11.73,2.52-2.2,4.54-3.37,8.58-3.25,8.8,.25,10.58,6.95,10.92,8.49,.36,1.64,1.97,7-5.28,13.87l-18.84,15.56v-22.94Z"/></g></svg>