<svg xmlns="http://www.w3.org/2000/svg" viewBox="0 0 471.37 96.66"><defs><style>.cls-1{fill:#25a9e0;}.cls-2{fill:#999;}</style></defs><title>alpha_logo</title><g id="Layer_2" data-name="Layer 2"><g id="Layer_1-2" data-name="Layer 1"><path class="cls-1" d="M82.41,0H14.25A14.25,14.25,0,0,0,0,14.25V82.41A14.25,14.25,0,0,0,14.25,96.66H82.41A14.25,14.25,0,0,0,96.66,82.41V14.25A14.25,14.25,0,0,0,82.41,0ZM85.9,77A8.91,8.91,0,0,1,77,85.9H19.66a8.91,8.91,0,0,1-8.9-8.9V19.66a8.91,8.91,0,0,1,8.9-8.9H77a8.91,8.91,0,0,1,8.9,8.9Z"/><path class="cls-2" d="M71.05,69a3.31,3.31,0,0,1-6.39,1.25l-3.74-9.75H34.17l-3.74,9.75a3.15,3.15,0,0,1-3,2.1A3.31,3.31,0,0,1,24,69.06a4.52,4.52,0,0,1,.31-1.33L42.28,23.29a5.71,5.71,0,0,1,5.3-3.59,5.53,5.53,0,0,1,5.23,3.59l18,44.44A6.86,6.86,0,0,1,71.05,69ZM58.73,54.71,47.58,25.78,36.43,54.71Z"/><path class="cls-2" d="M108.78,69.05V22.19a2.93,2.93,0,0,1,5.85,0V69.05a2.93,2.93,0,0,1-5.85,0Z"/><path class="cls-2" d="M161.65,52.76c0,12.16-6.86,19.8-16.77,19.8a15.53,15.53,0,0,1-12.71-6.7V83.4a2.92,2.92,0,0,1-5.84,0V36.54a2.92,2.92,0,0,1,5.84,0v3A15.75,15.75,0,0,1,144.88,33C154.79,33,161.65,40.51,161.65,52.76Zm-6.16,0c0-8.35-4.52-14.51-12.09-14.51a13.92,13.92,0,0,0-11.23,6v17a14,14,0,0,0,11.23,6.08C151,67.34,155.49,61.1,155.49,52.76Z"/><path class="cls-2" d="M196.58,69.05V46.83c0-6.63-3.43-8.58-8.5-8.58a14.81,14.81,0,0,0-11.15,5.85V69.05a2.93,2.93,0,0,1-5.85,0V22.19a2.93,2.93,0,0,1,5.85,0V39.42A18.71,18.71,0,0,1,190.42,33c7.88,0,12,3.82,12,12v24a2.93,2.93,0,0,1-5.85,0Z"/><path class="cls-2" d="M243.52,45.74V69.05a2.93,2.93,0,0,1-5.85,0V67.34c-3,3.43-7.33,5.22-12.47,5.22-6.4,0-13.18-4.29-13.18-12.47,0-8.42,6.78-12.4,13.18-12.4,5.14,0,9.43,1.64,12.47,5.15V46.05c0-5.07-4-7.95-9.51-7.95a13.88,13.88,0,0,0-9.82,3.74,3.13,3.13,0,0,1-1.56.47,2.43,2.43,0,0,1-2.42-2.42,2.56,2.56,0,0,1,1-2A19.54,19.54,0,0,1,228.94,33C236.89,33,243.52,36.62,243.52,45.74Zm-5.85,17.93V56.58c-2.26-3.12-6.24-4.68-10.37-4.68-5.45,0-9.28,3.43-9.28,8.26s3.83,8.19,9.28,8.19C231.43,68.35,235.41,66.79,237.67,63.67Z"/><path class="cls-1" d="M255.45,68.2V23.05a3.12,3.12,0,0,1,3.43-3.43h19.73c9.05,0,14.58,5.46,14.58,13.25a11.82,11.82,0,0,1-9.12,11.93c5.53.86,10.13,6.55,10.13,12.79,0,8.34-5.53,14-15,14H258.88A3.12,3.12,0,0,1,255.45,68.2Zm22.07-26.05c5.85,0,9-3.58,9-8.34s-3.12-8.42-9-8.42h-15.6V42.15Zm.31,23.71c6.08,0,9.67-3.44,9.67-9,0-4.76-3.28-9-9.67-9H261.92V65.86Z"/><path class="cls-1" d="M304.27,69.05V22.19a2.92,2.92,0,0,1,5.84,0V69.05a2.92,2.92,0,0,1-5.84,0Z"/><path class="cls-1" d="M319.63,52.76c0-10.92,7.17-19.73,18.63-19.73s18.64,8.81,18.64,19.73-7.18,19.8-18.64,19.8S319.63,63.67,319.63,52.76Zm31.11,0c0-7.64-4.45-14.51-12.48-14.51s-12.55,6.87-12.55,14.51,4.52,14.58,12.55,14.58S350.74,60.48,350.74,52.76Z"/><path class="cls-1" d="M383,33a16.18,16.18,0,0,1,12.09,4.68,2.86,2.86,0,0,1,.85,1.95,2.63,2.63,0,0,1-2.65,2.65,2.46,2.46,0,0,1-1.71-.7,11,11,0,0,0-8.27-3.36c-8,0-13,6.16-13,14.51s5,14.58,13,14.58A10.66,10.66,0,0,0,391.52,64a2.5,2.5,0,0,1,1.79-.7A2.63,2.63,0,0,1,396,65.93a2.71,2.71,0,0,1-.85,1.95A16.18,16.18,0,0,1,383,72.56c-11.23,0-18.79-8.58-18.79-19.8S371.79,33,383,33Z"/><path class="cls-1" d="M436.2,69a2.9,2.9,0,0,1-2.89,3,2.87,2.87,0,0,1-2.26-.94l-13.8-16.22-6.39,5.93v8.34a2.93,2.93,0,0,1-5.85,0V22.19a2.93,2.93,0,0,1,5.85,0V54.08l20.35-19.72a2.46,2.46,0,0,1,1.87-.71,2.7,2.7,0,0,1,2.65,2.73,2.83,2.83,0,0,1-.78,1.87l-13.49,13L435.5,67A3.11,3.11,0,0,1,436.2,69Z"/><path class="cls-1" d="M442,66a2.6,2.6,0,0,1,2.57-2.57,2.72,2.72,0,0,1,1.56.47,16.86,16.86,0,0,0,10.69,3.9c5.77,0,8.88-2.58,8.88-6.24,0-4.14-4.6-5.46-9.66-6.71-6.4-1.48-13.65-3.19-13.65-11,0-5.85,5.07-10.84,14-10.84a19.47,19.47,0,0,1,12.47,4.13,2.68,2.68,0,0,1,1,2,2.57,2.57,0,0,1-2.5,2.5,2.43,2.43,0,0,1-1.4-.55,14.54,14.54,0,0,0-9.59-3.27c-5.15,0-8.35,2.34-8.35,5.69,0,3.66,4.29,4.83,9.2,6,6.55,1.48,14.12,3.36,14.12,11.7,0,6.31-5.07,11.38-14.82,11.38a20.7,20.7,0,0,1-13.49-4.44A2.5,2.5,0,0,1,442,66Z"/></g></g></svg>