<svg xmlns="http://www.w3.org/2000/svg" viewBox="0 0 458.74 59.99"><defs><style>.cls-1{fill:#757575;}.cls-2{fill:#f05d16;}</style></defs><title>jardin_type</title><g id="Layer_2" data-name="Layer 2"><g id="Layer_1-2" data-name="Layer 1"><path class="cls-1" d="M14.6,62.6a.85.85,0,0,1-.84.86.84.84,0,0,1-.8-.54l-1-2.5H5.14l-1,2.5a.79.79,0,0,1-.78.54.85.85,0,0,1-.86-.83,1.17,1.17,0,0,1,.08-.35l4.6-11.4A1.46,1.46,0,0,1,8.58,50a1.42,1.42,0,0,1,1.34.92l4.62,11.4A1.8,1.8,0,0,1,14.6,62.6Zm-3.16-3.66L8.58,51.52,5.72,58.94Z" transform="translate(-1.95 -3.78)"/><path class="cls-1" d="M21.88,62.5V50.92a.8.8,0,0,1,.88-.88h5.06c2.32,0,3.74,1.4,3.74,3.4a3,3,0,0,1-2.34,3.06,3.33,3.33,0,0,1,2.6,3.28c0,2.14-1.42,3.6-3.86,3.6h-5.2A.8.8,0,0,1,21.88,62.5Zm5.66-6.68a2.07,2.07,0,0,0,2.3-2.14,2.1,2.1,0,0,0-2.3-2.16h-4v4.3Zm.08,6.08a2.21,2.21,0,0,0,2.48-2.3,2.27,2.27,0,0,0-2.48-2.3H23.54v4.6Z" transform="translate(-1.95 -3.78)"/><path class="cls-1" d="M39.08,56.72a6.66,6.66,0,0,1,6.8-6.9,6,6,0,0,1,4.58,1.94.76.76,0,0,1,.2.54.79.79,0,0,1-.78.78.77.77,0,0,1-.6-.26,4.59,4.59,0,0,0-3.4-1.52,5.11,5.11,0,0,0-5.08,5.42,5.12,5.12,0,0,0,5.08,5.42,4.49,4.49,0,0,0,3.4-1.52.77.77,0,0,1,.6-.26.78.78,0,0,1,.78.78.76.76,0,0,1-.2.54,6,6,0,0,1-4.58,2A6.67,6.67,0,0,1,39.08,56.72Z" transform="translate(-1.95 -3.78)"/><path class="cls-1" d="M58.18,62.5V50.92a.8.8,0,0,1,.88-.88h3.68a6.67,6.67,0,1,1,0,13.34H59.06A.8.8,0,0,1,58.18,62.5Zm4.56-.6a4.91,4.91,0,0,0,5.12-5.18,4.88,4.88,0,0,0-5.12-5.2h-2.9V61.9Z" transform="translate(-1.95 -3.78)"/><path class="cls-1" d="M77.34,62.5V50.92a.8.8,0,0,1,.88-.88h7.2a.74.74,0,1,1,0,1.48H79v4.3h6.28a.74.74,0,1,1,0,1.48H79v4.6h6.42a.74.74,0,1,1,0,1.48h-7.2A.8.8,0,0,1,77.34,62.5Z" transform="translate(-1.95 -3.78)"/><path class="cls-1" d="M93.88,62.64V50.92a.8.8,0,0,1,.88-.88H102a.74.74,0,1,1,0,1.48H95.54v4.3h6.28a.74.74,0,1,1,0,1.48H95.54v5.34a.84.84,0,0,1-.82.82A.83.83,0,0,1,93.88,62.64Z" transform="translate(-1.95 -3.78)"/><path class="cls-1" d="M121.6,57.42v3.26a1.32,1.32,0,0,1-.44,1.1,7,7,0,0,1-4.8,1.86,6.91,6.91,0,0,1,0-13.82,6.2,6.2,0,0,1,4.6,1.84.71.71,0,0,1,.22.54.75.75,0,0,1-.76.76.79.79,0,0,1-.56-.22,4.94,4.94,0,0,0-3.5-1.44,5.12,5.12,0,0,0-5.14,5.42,5.15,5.15,0,0,0,5.14,5.44,5.26,5.26,0,0,0,3.58-1.44V58H116a.74.74,0,1,1,0-1.48h4.7A.81.81,0,0,1,121.6,57.42Z" transform="translate(-1.95 -3.78)"/><path class="cls-1" d="M138.92,62.64V57.26h-7.8v5.38a.84.84,0,0,1-.82.82.83.83,0,0,1-.84-.82V50.78a.82.82,0,0,1,.82-.82.84.84,0,0,1,.84.82v5h7.8v-5a.83.83,0,0,1,1.66,0V62.64a.83.83,0,0,1-1.66,0Z" transform="translate(-1.95 -3.78)"/><path class="cls-1" d="M148.86,62.64V50.78a.83.83,0,0,1,.84-.82.84.84,0,0,1,.82.82V62.64a.84.84,0,0,1-.82.82A.83.83,0,0,1,148.86,62.64Z" transform="translate(-1.95 -3.78)"/><path class="cls-1" d="M157.62,61.92a.76.76,0,0,1,.78-.76.82.82,0,0,1,.44.14,2.75,2.75,0,0,0,2,.84,2.58,2.58,0,0,0,2.68-2.8V50.78a.82.82,0,0,1,.82-.82.84.84,0,0,1,.84.82v8.58a3.93,3.93,0,0,1-4.24,4.27,4.17,4.17,0,0,1-3-1.11A.71.71,0,0,1,157.62,61.92Z" transform="translate(-1.95 -3.78)"/><path class="cls-1" d="M183.1,62.67a.77.77,0,0,1-.75.79.83.83,0,0,1-.61-.24l-5.28-5.78-1.34,1.42v3.78a.84.84,0,0,1-.84.82.82.82,0,0,1-.82-.82V50.78a.82.82,0,0,1,.82-.82.84.84,0,0,1,.84.82V57l6.12-6.74a.69.69,0,0,1,.58-.26.8.8,0,0,1,.81.76.78.78,0,0,1-.23.54l-4.84,5.16,5.33,5.72A.8.8,0,0,1,183.1,62.67Z" transform="translate(-1.95 -3.78)"/><path class="cls-1" d="M190.64,62.5V50.78a.83.83,0,0,1,.84-.82.84.84,0,0,1,.82.82V61.9h5.54a.74.74,0,1,1,0,1.48h-6.32A.8.8,0,0,1,190.64,62.5Z" transform="translate(-1.95 -3.78)"/><path class="cls-1" d="M217.41,62.64V52.28L213,63.13a.47.47,0,0,1-.46.33.49.49,0,0,1-.46-.33l-4.4-10.85V62.64a.84.84,0,0,1-.82.82.83.83,0,0,1-.84-.82V51.36a1.4,1.4,0,0,1,1.4-1.4,1.38,1.38,0,0,1,1.3.88l3.82,9.42,3.85-9.42a1.38,1.38,0,0,1,1.3-.88,1.4,1.4,0,0,1,1.4,1.4V62.64a.83.83,0,0,1-.84.82A.84.84,0,0,1,217.41,62.64Z" transform="translate(-1.95 -3.78)"/><path class="cls-1" d="M236.52,63,229,52.62v10a.84.84,0,0,1-.82.82.83.83,0,0,1-.84-.82V51A1.09,1.09,0,0,1,228.42,50a1.06,1.06,0,0,1,.88.44l7.43,10.18v-9.8a.83.83,0,0,1,1.66,0V62.44a1,1,0,0,1-1.87.6Z" transform="translate(-1.95 -3.78)"/><path class="cls-1" d="M252.74,49.82c3.94,0,6.63,3,6.63,6.9s-2.69,6.91-6.63,6.91-6.62-3-6.62-6.91S248.78,49.82,252.74,49.82Zm0,1.48c-3,0-4.9,2.3-4.9,5.42s1.9,5.42,4.9,5.42,4.91-2.32,4.91-5.42S255.73,51.3,252.74,51.3Z" transform="translate(-1.95 -3.78)"/><path class="cls-1" d="M267.12,62.64V50.92A.8.8,0,0,1,268,50h4.48a4,4,0,1,1,0,8h-3.7v4.56a.84.84,0,0,1-.82.82A.83.83,0,0,1,267.12,62.64Zm5.16-11.12h-3.5V56.6h3.5a2.54,2.54,0,1,0,0-5.08Z" transform="translate(-1.95 -3.78)"/><path class="cls-1" d="M295.69,62.5a.73.73,0,0,1,.2.5.75.75,0,0,1-.76.76.73.73,0,0,1-.56-.24l-.84-.89a6.85,6.85,0,0,1-3.63,1c-4,0-6.62-3-6.62-6.91s2.66-6.9,6.62-6.9,6.63,3,6.63,6.9a7,7,0,0,1-1.84,4.92Zm-3-1-1.42-1.54a.74.74,0,0,1,.56-1.26.7.7,0,0,1,.56.24l1.44,1.56A5.87,5.87,0,0,0,295,56.72c0-3.12-1.92-5.42-4.91-5.42s-4.9,2.3-4.9,5.42,1.9,5.42,4.9,5.42A4.78,4.78,0,0,0,292.65,61.46Z" transform="translate(-1.95 -3.78)"/><path class="cls-1" d="M314.07,62.71a.81.81,0,0,1-.8.75.91.91,0,0,1-.71-.33l-3.48-5.05h-2.94v4.56a.84.84,0,0,1-.82.82.83.83,0,0,1-.84-.82V50.92a.8.8,0,0,1,.88-.88h4.49a3.89,3.89,0,0,1,4.18,4,3.67,3.67,0,0,1-3.18,3.84l3.06,4.28A.85.85,0,0,1,314.07,62.71Zm-7.93-6.09h3.5a2.55,2.55,0,1,0,0-5.1h-3.5Z" transform="translate(-1.95 -3.78)"/><path class="cls-1" d="M321.22,61.38a.81.81,0,0,1,.8-.82.73.73,0,0,1,.5.18,5.51,5.51,0,0,0,3.66,1.4c2.39,0,3.15-1.28,3.15-2.3,0-1.6-1.62-2-3.39-2.52-2.14-.56-4.52-1.16-4.52-3.78,0-2.2,2-3.7,4.7-3.7a6.37,6.37,0,0,1,4.13,1.38.75.75,0,0,1,.34.64.81.81,0,0,1-.78.8.74.74,0,0,1-.48-.18A5.15,5.15,0,0,0,326,51.32c-1.73,0-2.87.86-2.87,2.12s1.54,1.74,3.25,2.2c2.18.58,4.66,1.26,4.66,4.06,0,1.94-1.32,3.93-4.93,3.93a6.75,6.75,0,0,1-4.6-1.63A.84.84,0,0,1,321.22,61.38Z" transform="translate(-1.95 -3.78)"/><path class="cls-1" d="M342,62.64V51.52h-3.56a.74.74,0,0,1,0-1.48h8.81a.74.74,0,1,1,0,1.48h-3.59V62.64a.82.82,0,0,1-.82.82A.84.84,0,0,1,342,62.64Z" transform="translate(-1.95 -3.78)"/><path class="cls-1" d="M355.24,50.78a.83.83,0,0,1,1.66,0v7.38c0,2.44,1.32,4,3.78,4s3.79-1.54,3.79-4V50.78a.83.83,0,0,1,1.66,0v7.4c0,3.32-1.82,5.45-5.45,5.45s-5.44-2.15-5.44-5.43Z" transform="translate(-1.95 -3.78)"/><path class="cls-1" d="M378.06,62.54l-4.58-11.38a.59.59,0,0,1-.08-.32.88.88,0,0,1,1.7-.32l4.32,11,4.33-11a.85.85,0,0,1,.82-.56.89.89,0,0,1,.88.88.84.84,0,0,1-.08.32l-4.59,11.38a1.46,1.46,0,0,1-1.36.92A1.44,1.44,0,0,1,378.06,62.54Z" transform="translate(-1.95 -3.78)"/><path class="cls-1" d="M402.73,62.6l-2.74-10-2.72,10a1.14,1.14,0,0,1-1.13.86,1.13,1.13,0,0,1-1.12-.83L391.74,51.1a1.17,1.17,0,0,1,0-.26.89.89,0,0,1,.88-.88.88.88,0,0,1,.84.66l2.82,10.54,2.9-10.56A.89.89,0,0,1,400,50a.86.86,0,0,1,.84.64l2.9,10.56,2.8-10.54a.87.87,0,0,1,1.72.22,1.17,1.17,0,0,1,0,.26L405,62.63a1.15,1.15,0,0,1-2.22,0Z" transform="translate(-1.95 -3.78)"/><path class="cls-1" d="M426.43,62.64a.81.81,0,0,1-.82.82.79.79,0,0,1-.62-.25l-4.48-5.45L416,63.21a.79.79,0,0,1-.62.25.81.81,0,0,1-.82-.82,1,1,0,0,1,.2-.5l4.73-5.62-4.43-5.22a.9.9,0,0,1-.18-.52.81.81,0,0,1,1.42-.54l4.19,5.08,4.18-5.08a.78.78,0,0,1,.62-.28.81.81,0,0,1,.8.82.8.8,0,0,1-.18.5l-4.42,5.24,4.72,5.62A1,1,0,0,1,426.43,62.64Z" transform="translate(-1.95 -3.78)"/><path class="cls-1" d="M443.75,51.2l-4.46,6.54v4.9a.84.84,0,0,1-.84.82.82.82,0,0,1-.82-.82v-4.9l-4.49-6.52a.74.74,0,0,1-.14-.46.8.8,0,0,1,.8-.8.76.76,0,0,1,.68.36l4,5.94,3.94-5.94a.83.83,0,0,1,.68-.36.79.79,0,0,1,.68,1.24Z" transform="translate(-1.95 -3.78)"/><path class="cls-1" d="M450.72,62.42a1,1,0,0,1,.2-.56l7.41-10.34h-6.87a.74.74,0,1,1,0-1.48h8.13a.94.94,0,0,1,.76,1.52L452.94,61.9h7a.74.74,0,1,1,0,1.48h-8.27A1,1,0,0,1,450.72,62.42Z" transform="translate(-1.95 -3.78)"/><path class="cls-2" d="M2,19.9V5.25a1,1,0,0,1,1.1-1.1h5.6a4.88,4.88,0,0,1,5.22,5,4.9,4.9,0,0,1-5.22,5H4v5.7A1,1,0,0,1,2,19.9ZM8.4,6H4v6.35H8.4a3.1,3.1,0,0,0,3.32-3.17A3.1,3.1,0,0,0,8.4,6Z" transform="translate(-1.95 -3.78)"/><path class="cls-2" d="M22.57,9.45c0,.45-.37.85-1,.93a4.4,4.4,0,0,0-3.13,1.9V20a.93.93,0,0,1-.92.92.94.94,0,0,1-.95-.92V9.58a.94.94,0,0,1,1.87,0V10.7a5.38,5.38,0,0,1,2.7-2,1.86,1.86,0,0,1,.6-.13A.84.84,0,0,1,22.57,9.45Z" transform="translate(-1.95 -3.78)"/><path class="cls-2" d="M24.1,14.78c0-3.5,2.3-6.33,6-6.33s6,2.83,6,6.33-2.3,6.35-6,6.35S24.1,18.28,24.1,14.78Zm10,0c0-2.45-1.42-4.65-4-4.65s-4,2.2-4,4.65,1.45,4.67,4,4.67S34.07,17.25,34.07,14.78Z" transform="translate(-1.95 -3.78)"/><path class="cls-2" d="M47.85,20.05a.86.86,0,0,1-.88.87.91.91,0,0,1-.67-.29l-3.78-4.78-3.75,4.73a.88.88,0,0,1-.69.34.86.86,0,0,1-.88-.87.76.76,0,0,1,.2-.52l4.05-5L37.68,10.1a.86.86,0,0,1,.67-1.45A.79.79,0,0,1,39,9l3.54,4.35L46.07,9a.79.79,0,0,1,.65-.3.9.9,0,0,1,.88.9,1,1,0,0,1-.2.55l-3.78,4.48,4,5A.76.76,0,0,1,47.85,20.05Z" transform="translate(-1.95 -3.78)"/><path class="cls-2" d="M50.15,5.05a1.26,1.26,0,1,1,2.52,0,1.26,1.26,0,0,1-2.52,0Zm.33,15V9.58a.94.94,0,0,1,1.87,0V20a.94.94,0,0,1-1,.92A.93.93,0,0,1,50.48,20Z" transform="translate(-1.95 -3.78)"/><path class="cls-2" d="M72.55,12.1V20a1,1,0,0,1-1,.92.94.94,0,0,1-.93-.92V12.63c0-1.53-.67-2.5-2.22-2.5A4.22,4.22,0,0,0,65.25,12v8a.94.94,0,0,1-.93.92,1,1,0,0,1-.95-.92V12.63c0-1.53-.65-2.5-2.22-2.5A4.23,4.23,0,0,0,58,12v8a.94.94,0,0,1-1.87,0V9.58a.94.94,0,0,1,1.87,0v.92a5.21,5.21,0,0,1,3.9-2.05,3.1,3.1,0,0,1,3.25,2.25,5.09,5.09,0,0,1,4-2.25C71.37,8.45,72.55,9.68,72.55,12.1Z" transform="translate(-1.95 -3.78)"/><path class="cls-2" d="M85.72,12.53V20a.94.94,0,0,1-1.87,0v-.55a5.12,5.12,0,0,1-4,1.68,4,4,0,0,1-4.23-4,4,4,0,0,1,4.23-4,5.07,5.07,0,0,1,4,1.65V12.63c0-1.63-1.3-2.55-3-2.55a4.45,4.45,0,0,0-3.15,1.2,1.05,1.05,0,0,1-.5.15A.77.77,0,0,1,76.7,10a6.22,6.22,0,0,1,4.35-1.58C83.6,8.45,85.72,9.6,85.72,12.53Zm-1.87,5.75V16a4.05,4.05,0,0,0-3.33-1.5,2.66,2.66,0,1,0,0,5.28A4.05,4.05,0,0,0,83.85,18.28Z" transform="translate(-1.95 -3.78)"/><path class="cls-2" d="M95.27,18.33a1,1,0,0,1,1-1,.92.92,0,0,1,.63.23,6.9,6.9,0,0,0,4.57,1.75c3,0,3.93-1.6,3.93-2.88,0-2-2-2.55-4.23-3.15-2.67-.7-5.65-1.45-5.65-4.72,0-2.75,2.45-4.63,5.88-4.63a7.93,7.93,0,0,1,5.15,1.73.93.93,0,0,1,.42.8,1,1,0,0,1-1,1,.9.9,0,0,1-.6-.23,6.43,6.43,0,0,0-4.15-1.45c-2.15,0-3.58,1.08-3.58,2.65s1.93,2.18,4,2.75c2.73.73,5.83,1.58,5.83,5.08,0,2.42-1.65,4.9-6.15,4.9a8.4,8.4,0,0,1-5.75-2A1.06,1.06,0,0,1,95.27,18.33Z" transform="translate(-1.95 -3.78)"/><path class="cls-2" d="M109.88,14.78c0-3.5,2.3-6.33,6-6.33s6,2.83,6,6.33-2.3,6.35-6,6.35S109.88,18.28,109.88,14.78Zm10,0c0-2.45-1.43-4.65-4-4.65s-4,2.2-4,4.65,1.45,4.67,4,4.67S119.85,17.25,119.85,14.78Z" transform="translate(-1.95 -3.78)"/><path class="cls-2" d="M130.65,4.8a.69.69,0,0,1-.75.75c-.18,0-.43-.1-.73-.1-1.22,0-1.9.85-1.9,2.38v.92H129a.83.83,0,0,1,.82.83.82.82,0,0,1-.82.82h-1.73V20a.94.94,0,0,1-1.87,0V10.4h-1.27a.85.85,0,0,1-.85-.82.86.86,0,0,1,.85-.83h1.27V7.83c0-2.5,1.4-3.93,3.5-3.93a4.41,4.41,0,0,1,1.17.15A.78.78,0,0,1,130.65,4.8Z" transform="translate(-1.95 -3.78)"/><path class="cls-2" d="M137.17,20a.71.71,0,0,1-.47.7,3.23,3.23,0,0,1-1.7.4c-1.77,0-2.68-1-2.68-2.83V10.4h-1.27a.82.82,0,0,1-.82-.82.83.83,0,0,1,.82-.83h1.27V6.28a.94.94,0,0,1,1.88,0V8.75h1.72a.86.86,0,0,1,.85.83.85.85,0,0,1-.85.82H134.2v7.5c0,.9.4,1.55,1.22,1.55.53,0,.7-.22,1-.22A.76.76,0,0,1,137.17,20Z" transform="translate(-1.95 -3.78)"/><path class="cls-2" d="M157.8,20a1,1,0,0,1-1,.94,1.06,1.06,0,0,1-.88-.42l-4.35-6.3H147.9v5.7a1,1,0,0,1-1,1,1,1,0,0,1-1.05-1V5.25a1,1,0,0,1,1.1-1.1h5.6c3,0,5.23,1.95,5.23,5a4.58,4.58,0,0,1-4,4.8l3.83,5.35A1,1,0,0,1,157.8,20Zm-9.9-7.6h4.37a3.12,3.12,0,0,0,3.33-3.2A3.1,3.1,0,0,0,152.27,6H147.9Z" transform="translate(-1.95 -3.78)"/><path class="cls-2" d="M165.45,8.45a5.72,5.72,0,0,1,5.8,6c0,.6-.4,1-1.1,1h-8.68a4.26,4.26,0,0,0,4.35,4.18,5.2,5.2,0,0,0,3.25-1.15.8.8,0,0,1,.43-.1.75.75,0,0,1,.77.75.77.77,0,0,1-.32.62,6.83,6.83,0,0,1-4.3,1.43,6,6,0,0,1-6.15-6.35A6,6,0,0,1,165.45,8.45Zm-4,5.58h7.93a3.93,3.93,0,0,0-4-4A4,4,0,0,0,161.47,14Z" transform="translate(-1.95 -3.78)"/><path class="cls-2" d="M184.87,9.58v10.9c0,4-2.8,5.24-5.75,5.24a6.26,6.26,0,0,1-4.37-1.37.86.86,0,0,1-.33-.65.83.83,0,0,1,.83-.82.77.77,0,0,1,.47.17,4.87,4.87,0,0,0,3.4,1.12c2,0,3.88-1,3.88-3.62v-1.7A5.09,5.09,0,0,1,179,21c-3.15,0-5.38-2.35-5.38-6.25s2.2-6.28,5.38-6.28A5,5,0,0,1,183,10.6v-1a.94.94,0,0,1,1.87,0ZM183,17.35V12.08a4.45,4.45,0,0,0-3.6-1.95c-2.43,0-3.88,1.92-3.88,4.6s1.45,4.6,3.88,4.6A4.47,4.47,0,0,0,183,17.35Z" transform="translate(-1.95 -3.78)"/><path class="cls-2" d="M198.65,9.58V20a.94.94,0,0,1-1.88,0v-.85a5.9,5.9,0,0,1-4.3,2c-2.52,0-3.85-1.23-3.85-3.85V9.58a.94.94,0,0,1,1.88,0V16.7c0,2.13,1.07,2.75,2.7,2.75a4.63,4.63,0,0,0,3.57-1.82v-8a.94.94,0,0,1,1.88,0Z" transform="translate(-1.95 -3.78)"/><path class="cls-2" d="M202.4,20V5a.94.94,0,0,1,1.87,0V20a.94.94,0,0,1-1.87,0Z" transform="translate(-1.95 -3.78)"/><path class="cls-2" d="M217.44,12.53V20a.94.94,0,0,1-1.87,0v-.55a5.12,5.12,0,0,1-4,1.68,4,4,0,0,1-4.22-4,4,4,0,0,1,4.22-4,5.06,5.06,0,0,1,4,1.65V12.63c0-1.63-1.3-2.55-3-2.55a4.45,4.45,0,0,0-3.15,1.2,1,1,0,0,1-.5.15.78.78,0,0,1-.77-.78.81.81,0,0,1,.32-.62,6.26,6.26,0,0,1,4.35-1.58C215.32,8.45,217.44,9.6,217.44,12.53Zm-1.87,5.75V16a4,4,0,0,0-3.32-1.5,2.66,2.66,0,1,0,0,5.28A4,4,0,0,0,215.57,18.28Z" transform="translate(-1.95 -3.78)"/><path class="cls-2" d="M227.22,9.45c0,.45-.37.85-1,.93a4.4,4.4,0,0,0-3.13,1.9V20a.94.94,0,0,1-1.87,0V9.58a.94.94,0,0,1,1.87,0V10.7a5.38,5.38,0,0,1,2.7-2,1.86,1.86,0,0,1,.6-.13A.84.84,0,0,1,227.22,9.45Z" transform="translate(-1.95 -3.78)"/></g></g></svg>