<svg xmlns="http://www.w3.org/2000/svg" viewBox="0 0 456.58 64.87"><defs><style>.cls-1{fill:#757575;}.cls-2{fill:#f7911e;}</style></defs><title>garden_type</title><g id="Layer_2" data-name="Layer 2"><g id="Layer_1-2" data-name="Layer 1"><path class="cls-1" d="M12.94,63.54,11.16,59H5.44L3.68,63.54H2L7.64,49.2H9l5.62,14.34Zm-2.3-6L9,53.08c-.21-.56-.43-1.25-.66-2.06a19.87,19.87,0,0,1-.62,2.06L6,57.5Z" transform="translate(-1.53 -2.43)"/><path class="cls-1" d="M21.81,49.26h4a7.59,7.59,0,0,1,4.11.85,3,3,0,0,1,1.27,2.69,3.11,3.11,0,0,1-.71,2.09A3.39,3.39,0,0,1,28.45,56v.1q3.26.55,3.26,3.42a3.64,3.64,0,0,1-1.3,3,5.49,5.49,0,0,1-3.62,1.08h-5Zm1.66,6.11h2.74a4.45,4.45,0,0,0,2.53-.55A2.15,2.15,0,0,0,29.51,53a1.88,1.88,0,0,0-.86-1.73,5.29,5.29,0,0,0-2.73-.53H23.47Zm0,1.41v5.34h3a4.24,4.24,0,0,0,2.61-.67,2.46,2.46,0,0,0,.87-2.09,2.21,2.21,0,0,0-.89-2,4.77,4.77,0,0,0-2.72-.63Z" transform="translate(-1.53 -2.43)"/><path class="cls-1" d="M46.08,50.54a4.63,4.63,0,0,0-3.71,1.57A6.3,6.3,0,0,0,41,56.4a6.42,6.42,0,0,0,1.32,4.33,4.65,4.65,0,0,0,3.74,1.53,12.74,12.74,0,0,0,3.41-.54v1.46a10.53,10.53,0,0,1-3.66.55,6.18,6.18,0,0,1-4.87-1.91,7.9,7.9,0,0,1-1.71-5.44,8.61,8.61,0,0,1,.82-3.87A6,6,0,0,1,42.43,50a7.31,7.31,0,0,1,3.67-.89,8.82,8.82,0,0,1,3.93.82l-.71,1.42A7.52,7.52,0,0,0,46.08,50.54Z" transform="translate(-1.53 -2.43)"/><path class="cls-1" d="M69.18,56.26a7.22,7.22,0,0,1-1.92,5.41,7.58,7.58,0,0,1-5.52,1.87h-4V49.26h4.38a6.42,6.42,0,0,1,7,7Zm-1.76.06A5.78,5.78,0,0,0,66,52.11a5.64,5.64,0,0,0-4.17-1.41H59.44V62.1h2a6.14,6.14,0,0,0,4.47-1.46A5.79,5.79,0,0,0,67.42,56.32Z" transform="translate(-1.53 -2.43)"/><path class="cls-1" d="M85.52,63.54h-8V49.26h8v1.48h-6.3v4.59h5.91V56.8H79.22v5.25h6.3Z" transform="translate(-1.53 -2.43)"/><path class="cls-1" d="M95.53,63.54H93.87V49.26h8v1.48h-6.3V56h5.92v1.47H95.53Z" transform="translate(-1.53 -2.43)"/><path class="cls-1" d="M115.67,56.06h4.86V63a16.86,16.86,0,0,1-2.31.55,18.08,18.08,0,0,1-2.71.18,6.55,6.55,0,0,1-5.05-1.93,7.55,7.55,0,0,1-1.81-5.4,8.22,8.22,0,0,1,.89-3.9,6.07,6.07,0,0,1,2.58-2.56,8.31,8.31,0,0,1,3.93-.88,10.76,10.76,0,0,1,4.26.84l-.64,1.46a9.47,9.47,0,0,0-3.73-.82,5.36,5.36,0,0,0-4.07,1.55,6.06,6.06,0,0,0-1.46,4.31,6.13,6.13,0,0,0,1.41,4.38,5.41,5.41,0,0,0,4.14,1.5,12.71,12.71,0,0,0,2.9-.34v-4.4h-3.19Z" transform="translate(-1.53 -2.43)"/><path class="cls-1" d="M140,63.54h-1.66V56.82h-7.52v6.72h-1.66V49.26h1.66v6.07h7.52V49.26H140Z" transform="translate(-1.53 -2.43)"/><path class="cls-1" d="M149.1,63.54V49.26h1.66V63.54Z" transform="translate(-1.53 -2.43)"/><path class="cls-1" d="M157.79,67.3a3.18,3.18,0,0,1-1.44-.27V65.62a5.27,5.27,0,0,0,1.44.19,1.82,1.82,0,0,0,1.47-.58,2.51,2.51,0,0,0,.5-1.69V49.26h1.66V63.4a4.12,4.12,0,0,1-.93,2.88A3.5,3.5,0,0,1,157.79,67.3Z" transform="translate(-1.53 -2.43)"/><path class="cls-1" d="M180.72,63.54h-1.95l-5.21-6.93-1.49,1.33v5.6h-1.66V49.26h1.66v7.08l6.47-7.08h2l-5.75,6.2Z" transform="translate(-1.53 -2.43)"/><path class="cls-1" d="M187.88,63.54V49.26h1.66V62h6.3v1.51Z" transform="translate(-1.53 -2.43)"/><path class="cls-1" d="M209.77,63.54l-4.84-12.66h-.08c.09,1,.14,2.2.14,3.58v9.08h-1.54V49.26H206L210.48,61h.07l4.56-11.78h2.49V63.54h-1.66v-9.2c0-1.06,0-2.2.13-3.44H216l-4.88,12.64Z" transform="translate(-1.53 -2.43)"/><path class="cls-1" d="M237.86,63.54H236l-7.8-12h-.08c.11,1.4.16,2.69.16,3.86v8.12h-1.53V49.26h1.87l7.78,11.93h.08c0-.17,0-.74-.08-1.69s-.07-1.64-.05-2V49.26h1.55Z" transform="translate(-1.53 -2.43)"/><path class="cls-1" d="M259.37,56.38a7.88,7.88,0,0,1-1.73,5.39,6.09,6.09,0,0,1-4.82,2A6.16,6.16,0,0,1,248,61.8a7.92,7.92,0,0,1-1.71-5.44A7.78,7.78,0,0,1,248,51,6.2,6.2,0,0,1,252.84,49a6.07,6.07,0,0,1,4.8,2A7.81,7.81,0,0,1,259.37,56.38Zm-11.37,0a6.81,6.81,0,0,0,1.23,4.4,4.38,4.38,0,0,0,3.59,1.5,4.32,4.32,0,0,0,3.58-1.5,6.83,6.83,0,0,0,1.21-4.4,6.84,6.84,0,0,0-1.2-4.37,4.33,4.33,0,0,0-3.57-1.49,4.41,4.41,0,0,0-3.61,1.5A6.72,6.72,0,0,0,248,56.38Z" transform="translate(-1.53 -2.43)"/><path class="cls-1" d="M276.8,53.42a4,4,0,0,1-1.48,3.34,6.72,6.72,0,0,1-4.23,1.16h-1.68v5.62h-1.66V49.26h3.7Q276.8,49.26,276.8,53.42Zm-7.39,3.08h1.5a5.5,5.5,0,0,0,3.19-.72,2.6,2.6,0,0,0,1-2.28,2.45,2.45,0,0,0-.93-2.11,4.86,4.86,0,0,0-2.89-.69h-1.86Z" transform="translate(-1.53 -2.43)"/><path class="cls-1" d="M297.38,56.38a8.7,8.7,0,0,1-1.1,4.56,5.53,5.53,0,0,1-3.12,2.46l3.4,3.54h-2.41l-2.79-3.23-.53,0A6.16,6.16,0,0,1,286,61.8a7.92,7.92,0,0,1-1.71-5.44A7.83,7.83,0,0,1,286,51,6.23,6.23,0,0,1,290.85,49a6.07,6.07,0,0,1,4.8,2A7.86,7.86,0,0,1,297.38,56.38Zm-11.38,0a6.81,6.81,0,0,0,1.24,4.4,4.38,4.38,0,0,0,3.59,1.5,4.33,4.33,0,0,0,3.58-1.5,6.83,6.83,0,0,0,1.21-4.4,6.84,6.84,0,0,0-1.2-4.37,4.35,4.35,0,0,0-3.57-1.49,4.41,4.41,0,0,0-3.61,1.5A6.72,6.72,0,0,0,286,56.38Z" transform="translate(-1.53 -2.43)"/><path class="cls-1" d="M307.42,57.6v5.94h-1.66V49.26h3.92a6.17,6.17,0,0,1,3.88,1,3.66,3.66,0,0,1,1.25,3,3.78,3.78,0,0,1-2.87,3.83l3.88,6.42h-2L310.4,57.6Zm0-1.43h2.27a3.94,3.94,0,0,0,2.58-.69,2.61,2.61,0,0,0,.82-2.1,2.38,2.38,0,0,0-.83-2,4.51,4.51,0,0,0-2.68-.62h-2.16Z" transform="translate(-1.53 -2.43)"/><path class="cls-1" d="M331.37,59.74A3.49,3.49,0,0,1,330,62.68a6,6,0,0,1-3.71,1,9.24,9.24,0,0,1-3.91-.65v-1.6a10.66,10.66,0,0,0,1.91.58,9.69,9.69,0,0,0,2.06.22,4.15,4.15,0,0,0,2.5-.63,2.09,2.09,0,0,0,.83-1.75,2.25,2.25,0,0,0-.29-1.22,2.65,2.65,0,0,0-1-.87,13.45,13.45,0,0,0-2.12-.91,6.85,6.85,0,0,1-2.85-1.69,3.72,3.72,0,0,1-.85-2.55A3.17,3.17,0,0,1,323.82,50a5.14,5.14,0,0,1,3.28-1,9.65,9.65,0,0,1,3.91.78l-.51,1.44a9,9,0,0,0-3.44-.74,3.3,3.3,0,0,0-2.06.57,1.84,1.84,0,0,0-.74,1.57,2.41,2.41,0,0,0,.27,1.21,2.51,2.51,0,0,0,.92.87,11,11,0,0,0,2,.88,7.67,7.67,0,0,1,3.09,1.72A3.38,3.38,0,0,1,331.37,59.74Z" transform="translate(-1.53 -2.43)"/><path class="cls-1" d="M343.88,63.54h-1.66V50.74H337.7V49.26h10.71v1.48h-4.53Z" transform="translate(-1.53 -2.43)"/><path class="cls-1" d="M366.53,49.26V58.5a5,5,0,0,1-1.47,3.84A5.68,5.68,0,0,1,361,63.73a5.43,5.43,0,0,1-4-1.4,5.23,5.23,0,0,1-1.41-3.87v-9.2h1.66v9.32a3.67,3.67,0,0,0,1,2.74,3.93,3.93,0,0,0,2.87,1,3.79,3.79,0,0,0,2.78-1,3.68,3.68,0,0,0,1-2.76v-9.3Z" transform="translate(-1.53 -2.43)"/><path class="cls-1" d="M383.66,49.26h1.79L380.3,63.54h-1.64l-5.12-14.28h1.76l3.28,9.24a25.24,25.24,0,0,1,.9,3.09,25,25,0,0,1,.92-3.15Z" transform="translate(-1.53 -2.43)"/><path class="cls-1" d="M405.07,63.54h-1.64L400.54,54c-.13-.43-.29-1-.45-1.6a10.92,10.92,0,0,1-.27-1.17,22.45,22.45,0,0,1-.68,2.83l-2.79,9.5H394.7l-3.79-14.28h1.75l2.26,8.82a32.82,32.82,0,0,1,.68,3.36,25.69,25.69,0,0,1,.78-3.5l2.56-8.68h1.76L403.39,58a28,28,0,0,1,.79,3.42,29.33,29.33,0,0,1,.7-3.38l2.25-8.8h1.75Z" transform="translate(-1.53 -2.43)"/><path class="cls-1" d="M425.82,63.54h-1.89l-3.83-6.28-3.91,6.28h-1.76l4.75-7.46-4.43-6.82h1.84l3.54,5.66,3.58-5.66h1.77L421.05,56Z" transform="translate(-1.53 -2.43)"/><path class="cls-1" d="M436.69,56.4l3.81-7.14h1.79L437.53,58v5.54h-1.68V58.08l-4.76-8.82h1.82Z" transform="translate(-1.53 -2.43)"/><path class="cls-1" d="M458.1,63.54h-9.81v-1.3l7.58-11.49h-7.35V49.26h9.37v1.3L450.31,62h7.79Z" transform="translate(-1.53 -2.43)"/><path class="cls-2" d="M10.1,5.18a5.83,5.83,0,0,0-4.65,2,7.9,7.9,0,0,0-1.7,5.36,8.06,8.06,0,0,0,1.64,5.41,5.82,5.82,0,0,0,4.68,1.91,15.82,15.82,0,0,0,4.26-.67V21a13,13,0,0,1-4.58.7,7.76,7.76,0,0,1-6.08-2.39q-2.14-2.4-2.14-6.8a10.74,10.74,0,0,1,1-4.84,7.44,7.44,0,0,1,3-3.2,9.06,9.06,0,0,1,4.58-1.12,11,11,0,0,1,4.91,1l-.88,1.78A9.37,9.37,0,0,0,10.1,5.18Z" transform="translate(-1.53 -2.43)"/><path class="cls-2" d="M23.57,21.67a6.12,6.12,0,0,1-4.68-1.81,7,7,0,0,1-1.71-5,7.74,7.74,0,0,1,1.59-5.13A5.3,5.3,0,0,1,23.05,7.8a5,5,0,0,1,4,1.66,6.35,6.35,0,0,1,1.46,4.36V15.1H19.28a5.29,5.29,0,0,0,1.19,3.58,4.12,4.12,0,0,0,3.18,1.22A10.65,10.65,0,0,0,27.92,19V20.8a11.43,11.43,0,0,1-2,.67A11.78,11.78,0,0,1,23.57,21.67ZM23,9.5a3.32,3.32,0,0,0-2.57,1.05,4.87,4.87,0,0,0-1.13,2.9h7a4.43,4.43,0,0,0-.86-2.93A3,3,0,0,0,23,9.5Z" transform="translate(-1.53 -2.43)"/><path class="cls-2" d="M41.1,21.42V12.77a3.52,3.52,0,0,0-.74-2.44A3,3,0,0,0,38,9.52,3.84,3.84,0,0,0,35,10.66a5.7,5.7,0,0,0-1,3.74v7H32V8H33.6l.32,1.84H34a4.24,4.24,0,0,1,1.75-1.54,5.69,5.69,0,0,1,2.5-.54A5.09,5.09,0,0,1,41.91,9a5,5,0,0,1,1.22,3.73v8.72Z" transform="translate(-1.53 -2.43)"/><path class="cls-2" d="M51.61,20a7,7,0,0,0,1-.08,7.28,7.28,0,0,0,.79-.17V21.3a3.23,3.23,0,0,1-1,.26,7.16,7.16,0,0,1-1.15.11c-2.59,0-3.88-1.37-3.88-4.09v-8H45.52v-1l1.92-.84.85-2.86h1.17V8h3.89V9.62H49.46v7.87A2.68,2.68,0,0,0,50,19.35,2,2,0,0,0,51.61,20Z" transform="translate(-1.53 -2.43)"/><path class="cls-2" d="M58,8v8.68a3.5,3.5,0,0,0,.75,2.45,3,3,0,0,0,2.33.8,3.79,3.79,0,0,0,3.07-1.15,5.8,5.8,0,0,0,1-3.74V8h2V21.42H65.49l-.29-1.79h-.11a4,4,0,0,1-1.73,1.51,5.83,5.83,0,0,1-2.52.53,5.09,5.09,0,0,1-3.65-1.16A4.89,4.89,0,0,1,56,16.8V8Z" transform="translate(-1.53 -2.43)"/><path class="cls-2" d="M77.56,7.8a7.7,7.7,0,0,1,1.6.15l-.28,1.88a7,7,0,0,0-1.46-.19A3.57,3.57,0,0,0,74.64,11a4.82,4.82,0,0,0-1.15,3.29v7.17h-2V8h1.67l.23,2.48h.1a5.9,5.9,0,0,1,1.8-2A4.05,4.05,0,0,1,77.56,7.8Z" transform="translate(-1.53 -2.43)"/><path class="cls-2" d="M79.54,8h2.17l2.93,7.63a27.49,27.49,0,0,1,1.2,3.78h.1c.1-.42.33-1.13.66-2.13s1.45-4.1,3.32-9.28h2.17L86.34,23.28a7.56,7.56,0,0,1-2,3.2,4.28,4.28,0,0,1-2.81.95,8.16,8.16,0,0,1-1.83-.21V25.6a6.93,6.93,0,0,0,1.5.15,3.1,3.1,0,0,0,3-2.35l.75-1.9Z" transform="translate(-1.53 -2.43)"/><path class="cls-2" d="M108.91,12.07H115v8.68a20.79,20.79,0,0,1-2.88.69,22.63,22.63,0,0,1-3.4.23,8.26,8.26,0,0,1-6.31-2.41,9.54,9.54,0,0,1-2.26-6.76,10.28,10.28,0,0,1,1.12-4.88,7.57,7.57,0,0,1,3.22-3.19,10.38,10.38,0,0,1,4.92-1.11,13.43,13.43,0,0,1,5.32,1.05L113.9,6.2a11.93,11.93,0,0,0-4.65-1,6.64,6.64,0,0,0-5.09,1.94,7.53,7.53,0,0,0-1.83,5.38A7.67,7.67,0,0,0,104.1,18a6.76,6.76,0,0,0,5.18,1.87,15.07,15.07,0,0,0,3.62-.43V13.93h-4Z" transform="translate(-1.53 -2.43)"/><path class="cls-2" d="M130.51,14.72a7.37,7.37,0,0,1-1.65,5.11,5.79,5.79,0,0,1-4.55,1.84,6.05,6.05,0,0,1-3.19-.84A5.64,5.64,0,0,1,119,18.41a8.5,8.5,0,0,1-.76-3.69,7.35,7.35,0,0,1,1.64-5.09,5.77,5.77,0,0,1,4.54-1.83,5.64,5.64,0,0,1,4.46,1.87A7.35,7.35,0,0,1,130.51,14.72Zm-10.2,0a6.39,6.39,0,0,0,1,3.91,4.07,4.07,0,0,0,6,0,6.35,6.35,0,0,0,1-3.91,6.24,6.24,0,0,0-1-3.87,3.62,3.62,0,0,0-3-1.33,3.55,3.55,0,0,0-3,1.31A6.25,6.25,0,0,0,120.31,14.72Z" transform="translate(-1.53 -2.43)"/><path class="cls-2" d="M138.38,20a7.07,7.07,0,0,0,1-.08,7.28,7.28,0,0,0,.79-.17V21.3a3.23,3.23,0,0,1-1,.26,7.26,7.26,0,0,1-1.15.11c-2.59,0-3.89-1.37-3.89-4.09v-8h-1.91v-1l1.91-.84.86-2.86h1.17V8h3.88V9.62h-3.88v7.87a2.72,2.72,0,0,0,.57,1.86A2,2,0,0,0,138.38,20Z" transform="translate(-1.53 -2.43)"/><path class="cls-2" d="M152,21.42V12.77a3.48,3.48,0,0,0-.75-2.44A3,3,0,0,0,149,9.52a3.81,3.81,0,0,0-3.08,1.15,5.79,5.79,0,0,0-1,3.76v7h-2v-19h2V8.18a11.79,11.79,0,0,1-.1,1.72h.13a4.07,4.07,0,0,1,1.7-1.52,5.5,5.5,0,0,1,2.52-.55A5.16,5.16,0,0,1,152.84,9a4.91,4.91,0,0,1,1.23,3.71v8.72Z" transform="translate(-1.53 -2.43)"/><path class="cls-2" d="M158.06,4.42a1.35,1.35,0,0,1,.34-1,1.17,1.17,0,0,1,.85-.32,1.21,1.21,0,0,1,.85.33,1.33,1.33,0,0,1,.35,1,1.37,1.37,0,0,1-.35,1,1.21,1.21,0,0,1-.85.33,1.18,1.18,0,0,1-.85-.33A1.37,1.37,0,0,1,158.06,4.42Zm2.19,17h-2V8h2Z" transform="translate(-1.53 -2.43)"/><path class="cls-2" d="M169.9,21.67a5.71,5.71,0,0,1-4.5-1.79,7.36,7.36,0,0,1-1.59-5.06,7.62,7.62,0,0,1,1.61-5.19A5.84,5.84,0,0,1,170,7.8,9,9,0,0,1,172,8a6.46,6.46,0,0,1,1.52.49l-.63,1.72a9.62,9.62,0,0,0-1.46-.45A6.4,6.4,0,0,0,170,9.6q-4.06,0-4.07,5.19a6.22,6.22,0,0,0,1,3.79,3.46,3.46,0,0,0,2.95,1.32,9,9,0,0,0,3.43-.72V21A7.24,7.24,0,0,1,169.9,21.67Z" transform="translate(-1.53 -2.43)"/></g></g></svg>