<svg xmlns="http://www.w3.org/2000/svg" xmlns:xlink="http://www.w3.org/1999/xlink" viewBox="0 0 30.68 33.6"><defs><style>.cls-1{fill:#f47a5d;}</style><symbol id="logo" data-name="logo" viewBox="0 0 30.68 33.6"><path class="cls-1" d="M30.6,32.18c0-5.48,1.29-13.09-6.11-13.85-5.38-.56-16.73,2.48-20.31-2.87-4.36-6.54,1.94-14,9.19-12.31,5.12,1.17,5.48,6.07,5.5,10.36L19,32.18a1.44,1.44,0,0,0,2.87,0c0-7.21.22-14.47-.09-21.67C21.54,6.22,19.6,2.27,15.36.73,10.85-.9,5,.18,2.07,4.17A11.69,11.69,0,0,0,1.22,16c2,3.91,5.79,5.09,9.9,5.21s8.22-.52,12.18,0c5.69.71,4.42,6.83,4.42,11a1.44,1.44,0,0,0,2.88,0Z"/><path class="cls-1" d="M9.63,12.4V26.82c0,1.35-.35,3.21,0,4.53.74,2.42,3.49,2.83,5.39,1.52,1.52-1,.08-3.53-1.45-2.48s-1.12-.51-1.12-1.77V12.4a1.44,1.44,0,0,0-2.87,0Z"/></symbol></defs><title>logo</title><g id="Layer_2" data-name="Layer 2"><g id="Layer_1-2" data-name="Layer 1"><use width="30.68" height="33.6" xlink:href="#logo"/></g></g></svg>