<svg xmlns="http://www.w3.org/2000/svg" viewBox="0 0 464.49 63.65"><defs><style>.cls-1{fill:#757575;}.cls-2{fill:#db7d56;}</style></defs><title>trinket_type</title><g id="Layer_2" data-name="Layer 2"><g id="Layer_1-2" data-name="Layer 1"><path class="cls-1" d="M17,62.88v.79H12.84v-.79a.31.31,0,0,1,.28-.33l.82-.24-1.12-2.88H6.64L5.52,62.31l.82.24a.3.3,0,0,1,.26.33v.79H2.5v-.79a.31.31,0,0,1,.26-.33l.8-.24,5.2-13h2l5.18,13,.8.24A.31.31,0,0,1,17,62.88ZM12.28,58l-2.12-5.52a8.77,8.77,0,0,1-.44-1.34c-.16.6-.28,1-.4,1.36L7.18,58Z" transform="translate(-0.63 -3.03)"/><path class="cls-1" d="M33.94,59.59a3.6,3.6,0,0,1-1.32,2.94,5.59,5.59,0,0,1-3.72,1.14H22.4v-.88a.33.33,0,0,1,.3-.36l1.14-.24V50.79q-1-.18-1.14-.24a.33.33,0,0,1-.3-.36v-.88h6c2.56,0,4.14.74,4.76,2.18a3.59,3.59,0,0,1,.28,1.42,3.49,3.49,0,0,1-.16,1.2,3.26,3.26,0,0,1-.48.9,4.1,4.1,0,0,1-2,1.3C32.9,56.73,33.94,57.83,33.94,59.59Zm-8.16-3.84h2.56q2.4,0,3-1.44a2.79,2.79,0,0,0,.2-1,2.15,2.15,0,0,0-.76-1.84,3.79,3.79,0,0,0-2.36-.6H25.78Zm3.1,6.4c1.6,0,2.58-.52,3-1.56a2.91,2.91,0,0,0,.16-1,2.16,2.16,0,0,0-.76-1.76,3.64,3.64,0,0,0-2.38-.64h-3.1v5H28.9Z" transform="translate(-0.63 -3.03)"/><path class="cls-1" d="M46.36,49.17a13.51,13.51,0,0,1,4.44,1v3.36h-1a.4.4,0,0,1-.44-.36c0-.08,0-.38-.08-.9s-.08-.82-.08-.9c-3-1-5.22-.62-6.74,1a6.66,6.66,0,0,0,0,8.3A4.58,4.58,0,0,0,46,62.15a5.77,5.77,0,0,0,1.9-.24,5.25,5.25,0,0,0,1.76-1,.49.49,0,0,1,.32-.16.45.45,0,0,1,.32.12l.76.84a6.45,6.45,0,0,1-5.16,2.16,6.43,6.43,0,0,1-5-2,7.54,7.54,0,0,1-1.88-5.28,7.28,7.28,0,0,1,2-5.28,7.11,7.11,0,0,1,5.32-2Z" transform="translate(-0.63 -3.03)"/><path class="cls-1" d="M69.48,59.45A6.62,6.62,0,0,1,68,61.71a6.8,6.8,0,0,1-5.1,2H56.32v-.84a.37.37,0,0,1,.32-.38l1.12-.22V50.81c-.64-.12-1-.2-1.12-.24a.37.37,0,0,1-.32-.38v-.84h6.62a6.77,6.77,0,0,1,5.1,2,7.11,7.11,0,0,1,2,5.2A8.1,8.1,0,0,1,69.48,59.45Zm-1.84-5.3a5.06,5.06,0,0,0-1-1.76,4.72,4.72,0,0,0-3.7-1.48H59.72v11.2h3.22a4.75,4.75,0,0,0,3.7-1.48A5.82,5.82,0,0,0,68,56.51,7.14,7.14,0,0,0,67.64,54.15Z" transform="translate(-0.63 -3.03)"/><path class="cls-1" d="M85.76,49.35v3.46h-1a.37.37,0,0,1-.42-.34c0-.06-.06-.58-.14-1.54H78.88v4.76h5.28v1.52H78.88v4.9h5.36c.08-.88.12-1.38.12-1.44,0-.24.2-.32.44-.32h1v3.32H75.48v-.84a.35.35,0,0,1,.3-.38l1.14-.22V50.81q-1-.18-1.14-.24a.35.35,0,0,1-.3-.38v-.84Z" transform="translate(-0.63 -3.03)"/><path class="cls-1" d="M102.14,49.35v3.46h-1a.35.35,0,0,1-.4-.34c0-.06-.08-.58-.16-1.54H94.92v5h5.44v1.56H94.92v4.72l1.12.22a.37.37,0,0,1,.32.38v.84H91.52v-.84a.35.35,0,0,1,.3-.38L93,62.23V50.81q-1-.18-1.14-.24a.35.35,0,0,1-.3-.38v-.84h10.62Z" transform="translate(-0.63 -3.03)"/><path class="cls-1" d="M118,61.43V58.27h-2.22a.45.45,0,0,1-.32-.12.32.32,0,0,1-.12-.26v-1.1h4.4v5.5a9,9,0,0,1-5.44,1.54,6.78,6.78,0,0,1-5.1-2,7.31,7.31,0,0,1-2-5.3,6.88,6.88,0,0,1,7.32-7.32,14.56,14.56,0,0,1,5.06,1v3.32h-1c-.24,0-.38-.08-.42-.32s-.08-.7-.16-1.82c-.32-.1-.54-.18-.74-.22a10.12,10.12,0,0,0-2.58-.32,6.62,6.62,0,0,0-2.44.4,4.78,4.78,0,0,0-1.66,1.12,5.77,5.77,0,0,0-1.42,4.12,5.91,5.91,0,0,0,1.46,4.24,5,5,0,0,0,3.78,1.52A7.4,7.4,0,0,0,118,61.43Z" transform="translate(-0.63 -3.03)"/><path class="cls-1" d="M138.52,50.79V62.21l1.2.24a.32.32,0,0,1,.24.36v.86h-4.84v-.86a.37.37,0,0,1,.32-.38l1.12-.22V57.15h-7.72v5.06q1.44.3,1.44.6v.86h-4.82v-.86a.35.35,0,0,1,.3-.38l1.14-.22V50.79l-1.2-.24a.32.32,0,0,1-.24-.36v-.84h4.82v.84c0,.2-.06.32-.2.36s-.54.12-1.22.24v4.94h7.72V50.79l-1.2-.24a.32.32,0,0,1-.24-.36v-.84H140v.84a.35.35,0,0,1-.3.38Z" transform="translate(-0.63 -3.03)"/><path class="cls-1" d="M148.92,50.79V62.21l1.22.24a.32.32,0,0,1,.24.36v.86h-4.82v-.86a.34.34,0,0,1,.28-.38l1.16-.22V50.79l-1.2-.24a.32.32,0,0,1-.24-.36v-.84h4.82v.84a.35.35,0,0,1-.3.38Z" transform="translate(-0.63 -3.03)"/><path class="cls-1" d="M157.64,62.23c1.84,0,2.78-1.16,2.78-3.46v-8c-.76-.12-1.22-.2-1.34-.24a.34.34,0,0,1-.28-.38v-.84h5v.84a.37.37,0,0,1-.32.38l-1.12.22v7.92c0,2.46-.88,4-2.6,4.76a4.67,4.67,0,0,1-1.86.36,7.54,7.54,0,0,1-2.08-.28,4.13,4.13,0,0,1,.22-1.4.45.45,0,0,1,.32-.12,1.69,1.69,0,0,1,.48.08,2.89,2.89,0,0,0,.8.1Z" transform="translate(-0.63 -3.03)"/><path class="cls-1" d="M181.8,62.47a.33.33,0,0,1,.3.36v.8h-4.7v-.8a.3.3,0,0,1,.28-.34,8.52,8.52,0,0,0,.92-.18l-4.14-4.76a1.49,1.49,0,0,0-.62-.44,2.2,2.2,0,0,0-.5,0h-.88v5.12l1.12.24a.35.35,0,0,1,.32.36v.86h-4.82v-.86a.33.33,0,0,1,.3-.36l1.14-.24V50.79q-1-.18-1.14-.24a.35.35,0,0,1-.3-.38v-.86h4.82v.86a.37.37,0,0,1-.32.38l-1.12.24v4.8h.72a1.3,1.3,0,0,0,1-.4l4-4.56-.88-.16a.32.32,0,0,1-.28-.36v-.8h4.52l0,.76a.37.37,0,0,1-.32.38c-.12,0-.4.12-.92.24l-4.26,4.82a2.61,2.61,0,0,1-.78.64,2,2,0,0,1,.92.72l4.54,5.4c.56.12.9.18,1,.22Z" transform="translate(-0.63 -3.03)"/><path class="cls-1" d="M197.64,63.67h-10v-.86a.39.39,0,0,1,.3-.38l1.14-.22V50.79l-1.14-.22a.39.39,0,0,1-.3-.38v-.84h4.8v.84a.39.39,0,0,1-.3.38l-1.14.22V62h5.16c0-.56.1-1.06.12-1.14a.43.43,0,0,1,.42-.34h1Z" transform="translate(-0.63 -3.03)"/><path class="cls-1" d="M206.4,52.15a8.51,8.51,0,0,1,.06,1v9.08l1.36.24a.32.32,0,0,1,.26.36v.88H203.3v-.88a.34.34,0,0,1,.32-.36l1.11-.24V50.79q-.94-.18-1.11-.24a.34.34,0,0,1-.32-.36v-.88h2.88a1.05,1.05,0,0,1,.4.06.53.53,0,0,1,.26.26l4.94,8.84a7.14,7.14,0,0,1,.46,1,8.86,8.86,0,0,1,.46-1.06l4.84-8.82a.56.56,0,0,1,.28-.26,1.05,1.05,0,0,1,.4-.06h2.88v.88a.35.35,0,0,1-.32.36l-1.14.24v11.4q1,.18,1.14.24a.35.35,0,0,1,.32.36v.88h-4.8v-.88a.33.33,0,0,1,.3-.36l1.34-.24V53.13a7.71,7.71,0,0,1,0-.94l-4.92,9a.75.75,0,0,1-.68.46h-.28a.8.8,0,0,1-.72-.46l-5-9Z" transform="translate(-0.63 -3.03)"/><path class="cls-1" d="M238.08,60.51a7.72,7.72,0,0,1,0-1V50.83c-.78-.12-1.2-.22-1.32-.24a.35.35,0,0,1-.32-.36v-.88h4.8v.88a.35.35,0,0,1-.32.36l-1.14.24V63.69h-1a.82.82,0,0,1-.68-.34l-8.3-10.8a7.55,7.55,0,0,1,0,.92v8.76c.8.12,1.24.22,1.34.24a.32.32,0,0,1,.28.36v.86h-4.77v-.86a.34.34,0,0,1,.3-.36l1.15-.24V50.83c-.65-.12-1-.2-1.15-.24a.36.36,0,0,1-.3-.38v-.86h2.45a.94.94,0,0,1,.38.06,1.5,1.5,0,0,1,.3.26l8.28,10.8Z" transform="translate(-0.63 -3.03)"/><path class="cls-1" d="M260.38,56.55a8.18,8.18,0,0,1-.5,2.94,6.7,6.7,0,0,1-1.44,2.32,6.27,6.27,0,0,1-2.22,1.5,7.56,7.56,0,0,1-5.76,0,6.18,6.18,0,0,1-2.24-1.5,6.57,6.57,0,0,1-1.45-2.32,8.68,8.68,0,0,1,0-5.92,6.57,6.57,0,0,1,1.45-2.32,6.35,6.35,0,0,1,2.24-1.52,7.95,7.95,0,0,1,5.76,0,6.49,6.49,0,0,1,2.24,1.5,6.7,6.7,0,0,1,1.44,2.32,8.29,8.29,0,0,1,.5,3Zm-2,0a7.34,7.34,0,0,0-.36-2.38,5,5,0,0,0-1-1.78,4.32,4.32,0,0,0-1.6-1.1,5.63,5.63,0,0,0-2.12-.38,5.42,5.42,0,0,0-2.08.38,4.16,4.16,0,0,0-1.6,1.1,4.92,4.92,0,0,0-1.05,1.78,7.35,7.35,0,0,0-.35,2.38,7.23,7.23,0,0,0,.35,2.36,4.83,4.83,0,0,0,1.05,1.76,4.21,4.21,0,0,0,1.6,1.12,5.71,5.71,0,0,0,4.2,0,4.37,4.37,0,0,0,1.6-1.12,4.92,4.92,0,0,0,1-1.76,7.22,7.22,0,0,0,.36-2.36Z" transform="translate(-0.63 -3.03)"/><path class="cls-1" d="M273.64,49.63a4,4,0,0,1,3,4.16A4.06,4.06,0,0,1,275.24,57a5.82,5.82,0,0,1-4,1.28h-2v3.9c.13,0,.52.12,1.16.24a.34.34,0,0,1,.29.38v.84h-4.81v-.84a.35.35,0,0,1,.3-.38l1.14-.22V50.81c-.64-.12-1-.2-1.14-.24a.35.35,0,0,1-.3-.38v-.84h5.41a8.26,8.26,0,0,1,2.36.3Zm1,4.12a2.71,2.71,0,0,0-.84-2.12,3.61,3.61,0,0,0-2.54-.76h-2v5.88h2a3.58,3.58,0,0,0,2.5-.8,2.78,2.78,0,0,0,.9-2.18Z" transform="translate(-0.63 -3.03)"/><path class="cls-1" d="M295.92,56.57a8.42,8.42,0,0,1-.22,1.92,7.77,7.77,0,0,1-.6,1.7,7.45,7.45,0,0,1-.94,1.4,5.73,5.73,0,0,1-1.28,1.12l3.68,4H295a1.66,1.66,0,0,1-.64-.08,1.48,1.48,0,0,1-.5-.37l-2.52-2.76a11.9,11.9,0,0,1-1.18.28,6.63,6.63,0,0,1-1.29.13,7.58,7.58,0,0,1-2.88-.57,6.35,6.35,0,0,1-2.24-1.5,6.7,6.7,0,0,1-1.44-2.32,8.68,8.68,0,0,1,0-5.92,6.7,6.7,0,0,1,1.44-2.32A6.54,6.54,0,0,1,286,49.73a8,8,0,0,1,5.77,0,6.49,6.49,0,0,1,2.24,1.5,6.7,6.7,0,0,1,1.44,2.32,8.29,8.29,0,0,1,.5,3Zm-2.37-2.38a4.79,4.79,0,0,0-1-1.76,4.4,4.4,0,0,0-1.61-1.12,5.35,5.35,0,0,0-2.08-.38,5.54,5.54,0,0,0-2.11.38,4.32,4.32,0,0,0-1.61,1.12,4.88,4.88,0,0,0-1,1.76,8,8,0,0,0,0,4.76,4.88,4.88,0,0,0,1,1.76,4.44,4.44,0,0,0,1.62,1.12,6,6,0,0,0,4.21,0,4.45,4.45,0,0,0,1.6-1.12,4.9,4.9,0,0,0,1-1.76,7.84,7.84,0,0,0,0-4.76Z" transform="translate(-0.63 -3.03)"/><path class="cls-1" d="M313.54,62.43a.36.36,0,0,1,.3.36v.88h-2.08a.79.79,0,0,1-.77-.42l-3.72-5.12a1.41,1.41,0,0,0-.36-.34,1.12,1.12,0,0,0-.6-.12H305v4.52l1.12.24a.38.38,0,0,1,.32.36v.86h-4.82v-.86a.36.36,0,0,1,.3-.36l1.16-.24V50.79L302,50.55a.36.36,0,0,1-.3-.36v-.88H307a8.93,8.93,0,0,1,2.36.28,4.38,4.38,0,0,1,1.65.8,3.19,3.19,0,0,1,1,1.26,4.2,4.2,0,0,1,.31,1.66,3.75,3.75,0,0,1-.25,1.4,4.21,4.21,0,0,1-.69,1.2,3.79,3.79,0,0,1-1.11.9,5.44,5.44,0,0,1-1.48.58,1.9,1.9,0,0,1,.64.6l3.11,4.24c.11,0,.95.16,1.11.2Zm-6.71-6.16a5,5,0,0,0,1.5-.2,3,3,0,0,0,1.08-.6,2.32,2.32,0,0,0,.66-.88,2.8,2.8,0,0,0,.23-1.16,2.32,2.32,0,0,0-.84-1.92,4,4,0,0,0-2.51-.64H305v5.4h1.82Z" transform="translate(-0.63 -3.03)"/><path class="cls-1" d="M326.15,56.09a3.31,3.31,0,0,1,2.16,3.22,4.33,4.33,0,0,1-1.24,3.22,4.82,4.82,0,0,1-3.56,1.3,11.34,11.34,0,0,1-2-.18,11.94,11.94,0,0,1-1.6-.38l-.58-.2v-3.6h1a.35.35,0,0,1,.4.34,9.73,9.73,0,0,1,.1,1c0,.56.06.88.06.88a7.65,7.65,0,0,0,2.44.56,4.7,4.7,0,0,0,1.48-.2,2.34,2.34,0,0,0,.92-.54,2.43,2.43,0,0,0,.76-1.9,1.92,1.92,0,0,0-1.08-1.76,4.43,4.43,0,0,0-1.08-.48c-1.28-.4-2.12-.66-2.52-.84a4.54,4.54,0,0,1-1.1-.72,3.4,3.4,0,0,1-1.06-2.68,3.67,3.67,0,0,1,1.14-2.72,4.38,4.38,0,0,1,3.2-1.2,10.52,10.52,0,0,1,4,.8v3.3h-1a.37.37,0,0,1-.42-.34s-.06-.62-.14-1.78a9.21,9.21,0,0,0-2.36-.38,2.86,2.86,0,0,0-2,.64,2.11,2.11,0,0,0-.68,1.6,1.84,1.84,0,0,0,1.08,1.66,5.26,5.26,0,0,0,1.12.5q1.8.6,2.52.9Z" transform="translate(-0.63 -3.03)"/><path class="cls-1" d="M345.33,49.35v3.16h-1c-.24,0-.35-.06-.39-.2s-.11-.56-.19-1.32h-3.37V62.23a1.12,1.12,0,0,1,.24,0c.52.11.86.16,1,.2s.2.16.2.36v.84H337v-.84a.39.39,0,0,1,.34-.4l1.1-.22V51h-3.38a12.54,12.54,0,0,1-.18,1.34c0,.14-.16.2-.4.2h-1V49.35h11.8Z" transform="translate(-0.63 -3.03)"/><path class="cls-1" d="M364.62,49.35v.86a.37.37,0,0,1-.32.38l-1.15.22v7.26a5.81,5.81,0,0,1-1.51,4.12,6.08,6.08,0,0,1-8.35,0,5.75,5.75,0,0,1-1.54-4.12V50.81q-1-.18-1.14-.24a.35.35,0,0,1-.3-.38v-.84h5v.84a.37.37,0,0,1-.32.38c-.1,0-.52.1-1.32.22V58a4.22,4.22,0,0,0,1,3,4,4,0,0,0,5.56,0,4.26,4.26,0,0,0,1-2.94V50.79l-1.32-.22a.37.37,0,0,1-.32-.38v-.84h5Z" transform="translate(-0.63 -3.03)"/><path class="cls-1" d="M384.46,49.37v.86a.32.32,0,0,1-.29.36l-1,.24-5.26,12.88h-1.74l-5.24-12.88q-.84-.18-1-.24a.33.33,0,0,1-.3-.36v-.88h4.76v.88c0,.2-.14.34-.4.38s-.6.14-1,.22l3.66,9.1a10.83,10.83,0,0,1,.48,1.56,9.91,9.91,0,0,1,.46-1.58l3.62-9.1q-1-.18-1.14-.24a.35.35,0,0,1-.3-.38v-.84Z" transform="translate(-0.63 -3.03)"/><path class="cls-1" d="M411.3,49.35v.86a.37.37,0,0,1-.32.38l-1,.22-4,12.86h-1.75l-3.63-10.92a4.56,4.56,0,0,1-.2-.72c0,.12-.06.24-.1.36s0,.26-.08.36l-3.64,10.92h-1.76l-4-12.88c-.56-.12-.88-.2-1-.24a.35.35,0,0,1-.32-.36v-.86h4.88v.86a.35.35,0,0,1-.32.36c-.68.14-1,.24-1.12.24l2.64,9a11,11,0,0,1,.28,1.24,11.33,11.33,0,0,1,.3-1.24l3.38-10a.71.71,0,0,1,.24-.32.65.65,0,0,1,.42-.16h.56a.66.66,0,0,1,.66.48l3.37,10a10.36,10.36,0,0,1,.32,1.2c0-.2,0-.44.1-.64s.08-.4.11-.56l2.66-9c-.08,0-.43-.08-1.11-.22a.36.36,0,0,1-.32-.38v-.84h4.76Z" transform="translate(-0.63 -3.03)"/><path class="cls-1" d="M430.14,62.45a.34.34,0,0,1,.27.38v.84h-5.26v-.84a.35.35,0,0,1,.3-.38,4.1,4.1,0,0,0,.62-.12,4.93,4.93,0,0,1,.52-.1l-3.14-4.92a1.44,1.44,0,0,1-.18.4l-3,4.52,1.14.22a.35.35,0,0,1,.3.38v.84h-5.16v-.84a.37.37,0,0,1,.32-.38l1.32-.22,4-5.92-3.74-5.5q-1.14-.18-1.32-.24a.35.35,0,0,1-.3-.38v-.84h5.1v.84a.37.37,0,0,1-.32.38l-1,.18,3,4.6a2,2,0,0,1,.22-.48l2.74-4.08c-.24,0-.6-.14-1.12-.24a.35.35,0,0,1-.32-.36v-.86h5.16v.86a.34.34,0,0,1-.26.36q-.24.06-1.38.24l-3.74,5.42,3.94,6c.76.12,1.2.2,1.33.24Z" transform="translate(-0.63 -3.03)"/><path class="cls-1" d="M449,49.35v.88a.32.32,0,0,1-.23.36l-1.05.24L443.29,58v4.24c.08,0,.46.12,1.14.24a.33.33,0,0,1,.3.36v.86h-4.82v-.86a.35.35,0,0,1,.32-.36l1.12-.24V58L437,50.83l-1-.24a.34.34,0,0,1-.28-.38v-.86h4.8v.86a.35.35,0,0,1-.3.38c-.68.14-1.06.22-1.14.22l2.68,4.56a7.41,7.41,0,0,1,.58,1.26,7.08,7.08,0,0,1,.58-1.28l2.68-4.56c-.08,0-.48-.08-1.16-.22a.34.34,0,0,1-.28-.38v-.84Z" transform="translate(-0.63 -3.03)"/><path class="cls-1" d="M456.79,62.09h6.66c.08-1,.12-1.5.14-1.58,0-.24.18-.32.42-.32h1v3.48H454.27v-.76a1,1,0,0,1,.18-.56l8.12-11.44h-6.42c-.08,1-.1,1.5-.12,1.58a.39.39,0,0,1-.44.34h-1V49.35h10.48v.72a1.06,1.06,0,0,1-.2.64Z" transform="translate(-0.63 -3.03)"/><path class="cls-2" d="M18.7,20.45v1H13.55v-1a.38.38,0,0,1,.35-.4l1-.3-1.4-3.6H5.8l-1.4,3.6,1,.3a.37.37,0,0,1,.33.4v1H.63v-1a.38.38,0,0,1,.32-.4l1-.3,6.5-16.2H10.9l6.47,16.2,1,.3A.39.39,0,0,1,18.7,20.45Zm-5.85-6L10.2,7.5a10.53,10.53,0,0,1-.55-1.67c-.2.75-.35,1.3-.5,1.7L6.47,14.4Z" transform="translate(-0.63 -3.03)"/><path class="cls-2" d="M26,20.38v1.07H20.1V20.38a.47.47,0,0,1,.4-.48l1.4-.27V4.85c-.8-.15-1.25-.25-1.4-.3a.44.44,0,0,1-.4-.45V3h4V19.6c.8.15,1.25.25,1.4.3A.47.47,0,0,1,26,20.38Z" transform="translate(-0.63 -3.03)"/><path class="cls-2" d="M33,8.6a5.8,5.8,0,0,1,2.1.38,4.45,4.45,0,0,1,1.65,1.07,5.16,5.16,0,0,1,1.1,1.78,7.1,7.1,0,0,1,.4,2.4,1.51,1.51,0,0,1-.1.7.59.59,0,0,1-.45.17h-8.4a6.65,6.65,0,0,0,.3,2.1,4.12,4.12,0,0,0,.85,1.45,3.21,3.21,0,0,0,1.25.9,4.15,4.15,0,0,0,1.6.3,5.2,5.2,0,0,0,1.45-.17,7.59,7.59,0,0,0,1-.43,8.13,8.13,0,0,0,.75-.4,1,1,0,0,1,.5-.2.46.46,0,0,1,.42.23l.63.82a3.76,3.76,0,0,1-1,.85,5.26,5.26,0,0,1-1.23.62,8.43,8.43,0,0,1-1.35.36,9.05,9.05,0,0,1-1.37.12,6.45,6.45,0,0,1-2.43-.45,5.45,5.45,0,0,1-1.92-1.32,5.83,5.83,0,0,1-1.25-2.13,8.62,8.62,0,0,1-.45-2.9,7.11,7.11,0,0,1,.42-2.45,6.23,6.23,0,0,1,1.18-2,5.32,5.32,0,0,1,1.87-1.32A6.1,6.1,0,0,1,33,8.6ZM33,10.23a3.35,3.35,0,0,0-2.52.92,4.57,4.57,0,0,0-1.15,2.6h6.87a4.24,4.24,0,0,0-.22-1.4,3.34,3.34,0,0,0-.6-1.12,3.21,3.21,0,0,0-1-.73A3.52,3.52,0,0,0,33,10.25Z" transform="translate(-0.63 -3.03)"/><path class="cls-2" d="M48.57,9.05a5.53,5.53,0,0,1,1.93,1.3,5.7,5.7,0,0,1,1.2,2.05,8.89,8.89,0,0,1,0,5.4,5.7,5.7,0,0,1-1.2,2.05,5.53,5.53,0,0,1-1.93,1.3,7.17,7.17,0,0,1-5,0,5.4,5.4,0,0,1-1.92-1.3,5.74,5.74,0,0,1-1.22-2.05A7.44,7.44,0,0,1,40,15.1a7.44,7.44,0,0,1,.41-2.7,5.74,5.74,0,0,1,1.22-2.05,5.4,5.4,0,0,1,1.92-1.3,7.17,7.17,0,0,1,5,0Zm.3,9.6a6,6,0,0,0,.93-3.52,6,6,0,0,0-.93-3.53,3.2,3.2,0,0,0-2.8-1.25,4.05,4.05,0,0,0-1.65.3,3,3,0,0,0-1.15.95,4.17,4.17,0,0,0-.7,1.5,8.52,8.52,0,0,0-.25,2.05,8.1,8.1,0,0,0,.25,2,4.17,4.17,0,0,0,.7,1.5,2.89,2.89,0,0,0,1.15.9,4,4,0,0,0,1.65.35A3.2,3.2,0,0,0,48.87,18.65Z" transform="translate(-0.63 -3.03)"/></g></g></svg>