<svg xmlns="http://www.w3.org/2000/svg" viewBox="0 0 92.83 92.83"><defs><style>.cls-1{fill:#25a9e0;}.cls-2{fill:#999;}</style></defs><title>alpha_icon</title><g id="Layer_2" data-name="Layer 2"><g id="Layer_1-2" data-name="Layer 1"><path class="cls-1" d="M79.15,0H13.68A13.69,13.69,0,0,0,0,13.68V79.15A13.69,13.69,0,0,0,13.68,92.83H79.15A13.69,13.69,0,0,0,92.83,79.15V13.68A13.69,13.69,0,0,0,79.15,0Zm3.34,74A8.54,8.54,0,0,1,74,82.49H18.88A8.54,8.54,0,0,1,10.34,74V18.88a8.54,8.54,0,0,1,8.54-8.54H74a8.54,8.54,0,0,1,8.54,8.54Z"/><path class="cls-2" d="M68.24,66.24a3.18,3.18,0,0,1-6.14,1.2l-3.59-9.36H32.82l-3.59,9.36a3,3,0,0,1-2.93,2,3.17,3.17,0,0,1-3.21-3.14,4.27,4.27,0,0,1,.29-1.27L40.61,22.36a5.48,5.48,0,0,1,5.09-3.45,5.32,5.32,0,0,1,5,3.45L68,65.05A7.1,7.1,0,0,1,68.24,66.24ZM56.41,52.54,45.7,24.75,35,52.54Z"/></g></g></svg>