<svg xmlns="http://www.w3.org/2000/svg" viewBox="0 0 256.08 114.45"><defs><style>.cls-1{fill:#37b34a;}.cls-2{fill:#f1f1f2;}</style></defs><title>jardin_logo</title><g id="Layer_2" data-name="Layer 2"><g id="Layer_1-2" data-name="Layer 1"><path class="cls-1" d="M9.25,43.67c0-2.66,1.51-4.05,4.75-4.05s5,1.39,5,4.05V79.29c0,12.61-.23,23.6-9.25,32.62-1.74,1.73-3.13,2.54-4.63,2.54-2.31,0-5.09-2.08-5.09-4.62,0-1.74,1.27-2.78,2.78-4.4C9,98.84,9.25,90.16,9.25,79.64ZM14.11,29a6.14,6.14,0,0,1-6.36-6.37,6.11,6.11,0,0,1,6.36-6.24,6.11,6.11,0,0,1,6.36,6.24A6.14,6.14,0,0,1,14.11,29Z"/><path class="cls-1" d="M52.63,47.48a20.12,20.12,0,0,0-10.41,2.89c-1.85,1-2.78,1.85-4,1.85-2.55,0-3.93-2.66-3.93-4.62,0-1.39,1-2.78,3.47-4.28a30.42,30.42,0,0,1,15.84-4c7.4,0,13,2.08,16,6.25,2.2,2.77,3.13,6.94,3.13,12.6V87.73c0,2.78-1.16,4.17-4.63,4.17-2.89,0-4.28-.93-4.28-3.13V86c-3.82,4-9,6.13-15.5,6.13-10.41,0-16.42-5.78-16.42-14.46,0-10.52,9.14-16.08,31.34-17.81V58.35C63.15,51.18,60.26,47.48,52.63,47.48ZM42.1,77c0,4,2.78,7.17,9.25,7.17a18.2,18.2,0,0,0,11.8-4.51V66.34C48.69,68,42.1,70.62,42.1,77Z"/><path class="cls-1" d="M98.43,87.85c0,2.66-1.5,4.05-4.74,4.05s-5-1.39-5-4.05V43.67c0-2.66,1.5-4.05,4.74-4.05s4.62,1.62,4.51,4.05v5.78c3-6.36,8.33-10.06,15.73-10.06,3.12,0,4.39,1.27,4.39,4.39,0,3.59-1.73,4.4-5.09,4.51-7.4.23-11.68,2.78-14.57,8.91Z"/><path class="cls-1" d="M147.59,39.39a20.33,20.33,0,0,1,11.8,3.23V16.37c0-2.66,1.5-4.05,4.74-4.05s5,1.39,5,4.05V87.85c0,2.77-1.62,4.05-4.74,4.05s-4.4-1.16-4.4-3.36V86.11c-3.58,4-8.55,6-14.57,6-13.3,0-22.9-9.95-22.9-26C122.49,49.8,132.44,39.39,147.59,39.39Zm1,8c-9.83,0-16.08,6.94-16.08,18.27,0,11.57,6.13,18.51,15.5,18.51a16.64,16.64,0,0,0,11.34-4.4V50.84A17.33,17.33,0,0,0,148.63,47.37Z"/><path class="cls-1" d="M195.47,87.85c0,2.66-1.5,4.05-4.74,4.05s-5-1.39-5-4.05V43.67c0-2.66,1.5-4.05,4.74-4.05s5,1.39,5,4.05Z"/><path class="cls-1" d="M221.38,43.67v3.7c3-4.75,8.68-8,16.54-8,7.29,0,11.8,2.42,14.81,6.7,2.19,3.13,3.35,7.75,3.35,13.65V87.85c0,2.66-1.5,4.05-4.74,4.05s-5-1.39-5-4.05V61.25c0-3.47-.58-6.83-2.32-9.26-2-2.77-5.09-4.05-9.37-4.05a14.79,14.79,0,0,0-12.84,6.6V87.85c0,2.66-1.5,4.05-4.74,4.05s-5-1.39-5-4.05V43.67c0-2.66,1.5-4.05,4.74-4.05S221.5,41.24,221.38,43.67Z"/><path class="cls-1" d="M189.8,29S213,26.65,209,1.67A2,2,0,0,0,206.64.05C200.74,1.36,184.34,7,189.8,29Z"/><path class="cls-2" d="M189.52,29.65s5.25-15.58,11.91-18.76"/></g></g></svg>